<?xml version="1.0" standalone="no"?>
<!DOCTYPE svg PUBLIC "-//W3C//DTD SVG 1.1//EN" "http://www.w3.org/Graphics/SVG/1.1/DTD/svg11.dtd" >
<svg xmlns="http://www.w3.org/2000/svg" xmlns:xlink="http://www.w3.org/1999/xlink" version="1.1">
<metadata>
Created by FontForge 20170910 at Tue Jan 27 12:27:26 2015
 By Jimmy Wärting
</metadata>
<defs>
<font id="wb440" horiz-adv-x="1024" >
  <font-face 
    font-family="wb440"
    font-weight="400"
    font-stretch="normal"
    units-per-em="1024"
    panose-1="0 0 0 0 0 0 0 0 0 0"
    ascent="960"
    descent="-64"
    x-height="791"
    cap-height="772"
    bbox="0 -64 1025.39 960"
    underline-thickness="0"
    underline-position="0"
    unicode-range="U+0001-FFFD"
  />
<missing-glyph horiz-adv-x="0" 
 />
    <glyph glyph-name=".notdef" unicode="&#xfffd;" horiz-adv-x="0" 
 />
    <glyph glyph-name="glyph1" horiz-adv-x="0" 
d="M0 0v0v0v0z" />
    <glyph glyph-name="glyph1" horiz-adv-x="0" 
d="M0 0v0v0v0z" />
    <glyph glyph-name="uni0001" horiz-adv-x="0" 
d="M0 0v0v0v0z" />
    <glyph glyph-name="space" unicode=" " horiz-adv-x="512" 
d="M0 0v0v0v0z" />
    <glyph glyph-name="exclam" unicode="!" 
d="M512 260q-14 0 -24 -10t-10 -24t10 -24t24 -10t24 10t10 24t-10 24t-24 10v0zM512 858q-85 0 -159.5 -32.5t-130 -88t-88 -130t-32.5 -159.5t32.5 -159.5t88 -130t130 -88t159.5 -32.5t159.5 32.5t130 88t88 130t32.5 159.5t-32.5 159.5t-88 130t-130 88t-159.5 32.5v0z
M512 74q-77 0 -145.5 29.5t-119 80t-80 119t-29.5 145.5t29.5 145t80 119t119 80.5t145.5 29.5t145.5 -29.5t119 -80.5t80 -119t29.5 -145t-29.5 -145.5t-80 -119t-119 -80t-145.5 -29.5v0zM512 704q-14 0 -24 -8t-10 -20v-320q0 -11 10 -19t24 -8t24 8t10 19v320
q0 12 -10 20t-24 8v0z" />
    <glyph glyph-name="numbersign" unicode="#" 
d="M619 629q0 13 -10 22.5t-22 9.5h-224v182q0 12 -10 22t-22 10q-13 0 -22.5 -10t-9.5 -22v-182h-182q-12 0 -22 -9.5t-10 -22.5q0 -12 10 -22t22 -10h182v-544q0 -12 9.5 -22t22.5 -10q12 0 22 10t10 22v544h224q12 0 22 10t10 22v0zM800 597h107q12 0 22 10t10 22
q0 13 -10 22.5t-22 9.5h-107q-13 0 -22.5 -9.5t-9.5 -22.5q0 -12 9.5 -22t22.5 -10v0zM224 299h-107q-12 0 -22 -10t-10 -22q0 -13 10 -22.5t22 -9.5h107q13 0 22.5 9.5t9.5 22.5q0 12 -9.5 22t-22.5 10v0zM907 299h-182v544q0 12 -9.5 22t-22.5 10q-12 0 -22 -10t-10 -22
v-544h-224q-12 0 -22 -10t-10 -22q0 -13 10 -22.5t22 -9.5h224v-182q0 -12 10 -22t22 -10q13 0 22.5 10t9.5 22v182h182q12 0 22 9.5t10 22.5q0 12 -10 22t-22 10v0z" />
    <glyph glyph-name="plus" unicode="+" 
d="M861 481h-316v316q0 13 -10.5 23t-22.5 10t-22.5 -10t-10.5 -23v-316h-316q-13 0 -23 -10.5t-10 -22.5t10 -22.5t23 -10.5h316v-325q0 -12 10.5 -22t22.5 -10t22.5 10t10.5 22v325h316q13 0 23 10.5t10 22.5t-10 22.5t-23 10.5v0z" />
    <glyph glyph-name="slash" unicode="/" horiz-adv-x="1041" 
d="M897 710q-8 8 -18 8t-18 -8l-469 -469l-208 209q-8 8 -18.5 8t-17.5 -8q-8 -8 -8 -18.5t8 -18.5l223 -224q0 -1 1 -1.5t1 -1.5q3 -3 5.5 -4t5.5 -1q6 -3 14.5 -1.5t14.5 6.5q1 1 2.5 3.5t2.5 3.5l483 482q4 7 3.5 18t-7.5 17v0z" />
    <glyph glyph-name="less" unicode="&#x3c;" 
d="M896 482h-708l247 248q8 7 8 17.5t-8 17.5q-7 8 -17.5 8t-18.5 -8l-290 -290q-4 -4 -5.5 -9t-1.5 -11q0 -5 1.5 -10t5.5 -9l290 -290q8 -8 18.5 -8t17.5 8q8 8 8 18t-8 18l-247 249h708q10 0 18 7.5t8 18.5q0 10 -8 17.5t-18 7.5v0z" />
    <glyph glyph-name="question" unicode="?" horiz-adv-x="1065" 
d="M485 289q-1 5 -3 24t-2 25q0 38 19 75t62 77q43 39 67 67.5t24 63.5t-32 58.5t-99 23.5q-40 0 -79 -10t-65 -24l-31 74q36 18 85.5 30.5t103.5 12.5q121 0 173 -47.5t52 -105.5q0 -54 -34 -95t-81 -81q-36 -33 -53 -63.5t-17 -64.5q0 -7 0.5 -12.5t3.5 -27.5h-94v0z
M467 145q0 36 20.5 54.5t46.5 18.5q30 0 48.5 -20t18.5 -51q0 -28 -17.5 -49.5t-50.5 -21.5q-29 0 -47.5 20t-18.5 49v0z" />
    <glyph glyph-name="at" unicode="@" 
d="M960 198q0 4 1 6.5t-1 4.5v2q-2 11 -10.5 19.5t-21.5 8.5t-17 -10.5t-17 -27.5v0v0v0v0q-26 -34 -59.5 -60.5t-75.5 -42.5q-43 -16 -96 -25t-113 -9q-62 0 -114.5 10t-100.5 31q-48 19 -88 52.5t-66 77.5q-27 43 -41 93t-14 103q0 54 12.5 106.5t36.5 102.5
q26 48 62.5 88.5t82.5 69.5q48 27 104.5 41t123.5 14q80 0 142.5 -20.5t105.5 -62.5q45 -41 61 -94.5t16 -114.5q0 -35 -6 -67.5t-20 -64.5q-16 -32 -32.5 -55.5t-42.5 -42.5q-19 -15 -55 -30t-49 -15q-5 0 -8 1.5t-5 4.5q-3 3 -4.5 8t-1.5 11q0 5 4.5 25t7.5 31l73 284
q1 1 1.5 4t0.5 6l2 5v0v0v4q0 16 -11 26t-25 10q-15 0 -25.5 -10t-10.5 -24v0l-11 -36q-19 32 -56 52t-98 20q-35 0 -82 -25t-82 -81q-21 -32 -37.5 -82.5t-20.5 -107.5q-1 -45 11.5 -82.5t38.5 -64.5q25 -28 53 -36.5t47 -8.5q35 0 66.5 13t59.5 40q3 -13 9.5 -22.5
t15.5 -17.5q10 -7 24.5 -10t33.5 -3q70 0 135 34.5t102 86.5q32 45 49 99t17 115q0 51 -8.5 97.5t-34.5 89.5q-24 44 -57 77t-79 56q-48 19 -101.5 30.5t-112.5 11.5q-70 0 -132.5 -15.5t-116.5 -43.5q-55 -29 -98 -71.5t-75 -101.5q-32 -58 -48 -120.5t-16 -129.5
q0 -61 14.5 -117t42.5 -107t75.5 -92.5t93.5 -67.5q54 -30 123.5 -40.5t147.5 -10.5q80 0 148.5 15t124.5 47q40 22 76.5 58.5t49.5 65.5q0 3 1 6t1 6v0zM597 420q-9 -30 -25 -54t-30 -40q-10 -11 -23 -19t-24 -15q-13 -8 -26 -12.5t-27 -4.5q-20 0 -41 7t-34 23t-20.5 42.5
t-7.5 59.5q0 26 5 55t23 61q14 30 28.5 51t33.5 38q19 18 37.5 25t41.5 7q21 0 41.5 -8t35.5 -24q14 -16 25 -33t11 -46q-2 -25 -8 -53.5t-16 -59.5v0z" />
    <glyph glyph-name="A" unicode="A" 
d="M159 482v0q-9 -11 -15 -26t-6 -32q0 -14 4 -26.5t12 -22.5v0q1 -6 4.5 -9t8.5 -3q7 0 12 4.5t5 12.5v3.5t-1 3.5v0q-6 7 -9 16.5t-3 18.5q0 11 3 20t9 16v0q2 3 3.5 5.5t1.5 6.5q0 8 -5 12.5t-12 4.5q-4 2 -7.5 0t-4.5 -5v0zM152 322v0v0q-23 18 -36.5 44.5t-13.5 57.5
q0 36 18 66t47 47v0q3 2 5 6t2 7q0 8 -4.5 12.5t-12.5 4.5q-3 0 -6 -1t-4 -2v0q-36 -23 -57.5 -59.5t-21.5 -80.5q0 -37 15.5 -69t41.5 -54q2 -4 5.5 -5.5t7.5 -1.5q8 0 12.5 5.5t4.5 11.5v4t-1 3v0q0 2 -0.5 2t-1.5 2v0zM836 750l-385 140q-13 5 -26.5 -1.5t-18.5 -18.5
l-237 -659q-5 -13 1.5 -26t18.5 -19l386 -140q13 -5 26 1.5t19 19.5l238 657q4 14 -2.5 27.5t-19.5 18.5v0zM597 146l-350 128l204 560l349 -128l-203 -560v0zM877 598v0q-1 1 -3.5 1.5t-4.5 0.5q-7 0 -12 -4.5t-5 -12.5q0 -3 1 -5.5t4 -4.5v0q29 -17 46 -47t17 -66
q0 -32 -12 -60t-36 -46l-2 -3v-2v0q0 -6 5 -11.5t12 -5.5h4t3 2v0l2 1h2l0.5 1l0.5 1q26 22 41.5 54t15.5 69q0 43 -22 79.5t-57 58.5v0zM886 460q0 17 -6 31.5t-15 26.5v0q-2 4 -6 5.5t-7 1.5q-7 0 -12 -5t-5 -12q0 -4 1 -7.5t4 -4.5v0q5 -8 8.5 -17t3.5 -19t-2.5 -19
t-8.5 -17v0q-1 -1 -1 -3.5v-4.5q0 -7 4.5 -12t12.5 -5q5 0 9.5 3t5.5 7q7 11 10.5 24t3.5 27v0z" />
    <glyph glyph-name="B" unicode="B" 
d="M594 595q-62 36 -130 17t-104 -80q-36 -62 -17 -130t80 -104q62 -36 130 -17t104 80q35 61 16.5 129.5t-79.5 104.5v0zM626 378q-28 -49 -82.5 -64t-104.5 13q-49 28 -63.5 83t13.5 105q28 48 83 63t105 -14q48 -28 63 -82.5t-14 -103.5v0zM852 359l-38 40q4 25 3.5 51.5
t-5.5 50.5l40 39q9 8 14.5 20.5t-1.5 24.5l-58 99q-6 11 -19.5 11.5t-24.5 -1.5l-53 -14q-10 9 -21.5 17.5t-24.5 15.5q-12 6 -23.5 11.5t-22.5 10.5l-16 54q-2 12 -10 23t-22 11h-116q-13 0 -20 -11t-12 -23l-16 -54q-23 -9 -45.5 -22t-41.5 -29l-58 15q-11 4 -24.5 2.5
t-19.5 -12.5l-58 -99q-7 -12 -1.5 -24t14.5 -21l40 -39q-7 -29 -7 -58t5 -58l-39 -36q-11 -10 -15.5 -21.5t1.5 -22.5l58 -99q6 -12 19.5 -14t26.5 4l51 13q11 -7 21 -15t22 -16q13 -7 26.5 -12.5t26.5 -10.5l14 -50q3 -14 10.5 -24t21.5 -10h116q13 0 21.5 10.5t10.5 23.5
l14 50q28 10 53.5 24.5t47.5 34.5l48 -12q14 -3 26.5 -2t19.5 13l58 99q4 10 -1.5 21.5t-15.5 20.5v0zM811 322l-36 -63q-4 -7 -13.5 -6.5t-20.5 4.5l-41 15v0v0q-7 -6 -13 -12.5t-13 -11.5l-2.5 -2.5l-2.5 -2.5l-1.5 -1.5l-1.5 -1.5q-7 -5 -14.5 -9.5t-14.5 -9.5
q-2 0 -3 -1t-3 -1q-1 -1 -2 -1.5l-3 -1.5q-14 -7 -24 -10.5t-17 -4.5q-1 0 -3 -1t-3 -1l-4 -17l-5 -28v-3q-1 -11 -6 -20t-13 -9h-77q-7 0 -12 9t-6 20l-4 15l-0.5 4.5t-0.5 9.5l-7 22q-2 0 -3 1t-2 1q-14 4 -28 10t-25 12l-1 0.5t-1 1.5v0h-2q-6 4 -11.5 7.5t-10.5 7.5
q-1 1 -3 2.5t-4 2.5q-9 7 -14 12t-6 5l-29 -10l-14 -5l-7 -2q-10 -4 -20 -4t-16 8l-39 68q-4 8 1.5 16.5t14.5 15.5l39 35v0v0q-14 44 -7 86t9 47l-38 32q-8 8 -13.5 16t-1.5 15l35 63q4 6 15 6t20 -4l17 -7l3 -1.5t9 -3.5l20 -7l2.5 2.5l2.5 2.5q13 13 28.5 23t29.5 16
q5 3 11 5.5t11 5.5q12 5 19 6.5l7 1.5l9 44l1 6q3 10 7 19.5t12 9.5h77q8 0 12.5 -9.5t6.5 -19.5l10 -48q8 -3 15.5 -5.5t15.5 -4.5q1 0 1.5 -1t1.5 -1t2.5 -1t2.5 -1q7 -2 12.5 -5t11.5 -7q1 0 1.5 -1t1.5 -1q22 -12 34.5 -23t13.5 -12l17 5l26 8h2q10 3 20 4t15 -7l40 -68
q4 -8 -2 -17t-14 -16l-36 -31q0 -1 1 -2.5t1 -3.5q5 -16 6 -34t1 -35v-4v-4v0v0q0 -4 -1 -8.5t-1 -8.5v-4.5t-1 -4.5v-1.5v-1.5q-2 -7 -3 -11.5l-1 -4.5l34 -29l2 -1q8 -5 13 -13.5t1 -15.5v0z" />
    <glyph glyph-name="C" unicode="C" 
d="M358 480v0v0v-6v-3v-3q6 -58 49.5 -98.5t104.5 -40.5q60 0 104 40t50 98v2.5v2.5v194v2.5v1.5q0 64 -45 108.5t-109 44.5q-60 0 -104 -40.5t-50 -98.5v-3v-3v-6v0v0v0v0v-192q0 2 0 1v-1v0zM410 673q1 41 30.5 70t71.5 29t72 -30t30 -72v-1.5v-2.5v0v-192v-1v-1
q-3 -39 -32.5 -65.5t-69.5 -26.5q-42 0 -72 30t-30 72v0v191v0zM787 463q0 5 -0.5 9.5t-1.5 9.5v0v0q0 10 -7.5 18t-18.5 8q-10 0 -17.5 -7t-7.5 -19v0v0q0 -4 1 -8.5t1 -8.5q0 -46 -17.5 -86.5t-47.5 -70.5t-70.5 -47.5t-86.5 -17.5t-86.5 17.5t-70.5 47.5t-47.5 70.5
t-17.5 86.5v8.5t2 8.5v0v0q0 10 -8 18t-18 8t-18 -8t-8 -18v-2v-2v-3v-7v-6q0 -52 18.5 -98.5t50.5 -82.5t76 -59.5t94 -29.5v-1v-1v-68h-128q-10 0 -17.5 -7.5t-7.5 -18.5q0 -10 7.5 -17.5t17.5 -7.5h325q10 0 17.5 7.5t7.5 17.5q0 11 -7.5 18.5t-17.5 7.5h-132v68v1v1
q51 7 95 31t76 60t51 82.5t19 97.5v0z" />
    <glyph glyph-name="D" unicode="D" 
d="M478 806q-64 0 -120 -24t-97.5 -66t-65.5 -97.5t-24 -119.5q0 -63 24 -119t66 -98t98 -66t119 -24t119 24t98 66t66 98t24 119q0 64 -24 119.5t-66 97.5t-98 66t-119 24v0zM478 243q-53 0 -100 20t-81.5 55t-54.5 81.5t-20 99.5t20 100t54.5 81.5t81.5 54.5t100 20
t99.5 -20t81.5 -54.5t55 -81.5t20 -100t-20 -99.5t-55 -81.5t-81.5 -55t-99.5 -20v0zM881 134l-122 121q-7 8 -17.5 8t-17.5 -8q-8 -8 -8 -18t8 -18l121 -121q7 -8 17.5 -8t18.5 8q6 7 6 17.5t-6 18.5v0z" />
    <glyph glyph-name="E" unicode="E" 
d="M230 124h195h11.5h7.5q10 0 17.5 7.5t7.5 17.5q0 11 -7.5 18.5t-17.5 7.5h-2h-2v0h-218l2 8.5t5 17.5q16 74 69.5 128.5t126.5 74.5v0q8 3 13.5 11.5t5.5 17.5q0 10 -5 17.5t-14 11.5v0q-37 21 -60.5 58t-23.5 82q0 64 45 108.5t109 44.5t109 -44.5t45 -108.5
q0 -46 -24.5 -82.5t-63.5 -56.5v0q-7 -3 -11 -11.5t-4 -17.5t4.5 -16.5t10.5 -12.5v0q25 -7 44 -15.5t37 -20.5v0v0q6 -5 12 -7.5t13 -2.5q11 0 18.5 8t7.5 18q0 9 -4.5 15t-12.5 9q-13 9 -27 16.5t-29 13.5q35 29 57.5 71t22.5 92q0 42 -16.5 79t-44 65t-65 44t-79.5 16
t-79.5 -16t-65.5 -44t-44 -65t-16 -79q0 -50 21.5 -92t58.5 -71q-40 -16 -74.5 -42.5t-60 -61t-42 -75t-21.5 -85.5v0q-1 -6 -1 -8.5v-8.5q0 -14 13.5 -24t27.5 -10h18zM783 124q14 0 24 10t10 24v6.5t-1 10.5v0q-3 20 -7 39t-10 38q-3 6 -3 7t-2 6l-0.5 1.5t-3.5 4.5v0
l-8 4t-9 2q-10 0 -17.5 -7.5t-7.5 -17.5v-1v-1v0q5 -11 8 -23t7 -23q2 -10 3.5 -19.5l1.5 -9.5h-102v0v0q-11 0 -18.5 -7.5t-7.5 -18.5q0 -10 7.5 -17.5t18.5 -7.5v0v0v0h93h24zM848 445q-5 5 -12 5t-12 -5l-365 -364q-5 -5 -5 -12t5 -12t12 -5t12 5l364 364q6 5 6 11.5
t-5 12.5v0z" />
    <glyph glyph-name="F" unicode="F" 
d="M179 124h340l-7 1q3 -1 4.5 -1h4.5q10 0 17.5 7.5t7.5 17.5q0 11 -7.5 18.5t-17.5 7.5h-4.5t-4.5 -2l5 2h-348l2 8.5t5 17.5q16 74 70.5 129.5t128.5 74.5v0q8 4 13.5 12t5.5 17q0 12 -6.5 20.5t-17.5 12.5q-35 20 -57.5 55.5t-22.5 79.5q0 64 45 108.5t109 44.5
t108.5 -44.5t44.5 -108.5q0 -46 -24 -83.5t-63 -56.5v0q-6 -5 -10.5 -12t-4.5 -16t4 -16t11 -11v0q2 0 3 -1t2 -1q3 -1 5.5 -1.5t5.5 -1.5q27 -9 51.5 -23t45.5 -32v0q6 -6 13 -11.5t16 -5.5q10 0 18 8t8 18q0 8 -4 13.5t-10 8.5q-21 19 -45 35t-51 26q36 29 58.5 71
t22.5 92q0 42 -16.5 79t-44 65t-65 44t-79.5 16q-43 0 -80 -16t-65 -44t-44 -65t-16 -79q0 -50 21.5 -92t58.5 -71q-40 -16 -74 -43.5t-60 -63t-43 -78t-24 -89.5l3 10q-2 -4 -3.5 -8.5t-1.5 -8.5q0 -14 11 -24t25 -10h27zM817 209h-83v85q0 8 -5 12.5t-12 4.5
q-8 0 -12.5 -4.5t-4.5 -12.5v-85h-87q-8 0 -12.5 -4.5t-4.5 -12.5t4.5 -12.5t12.5 -4.5h87v-85q0 -8 4.5 -12.5t12.5 -4.5q7 0 12 4.5t5 12.5v85h83q8 0 13 4.5t5 12.5t-5 12.5t-13 4.5v0z" />
    <glyph glyph-name="G" unicode="G" 
d="M811 508q-11 0 -18.5 -8t-7.5 -18v-341h-580v580h341q10 0 18 7.5t8 18.5q0 10 -8 17.5t-18 7.5v0v0h-358q-14 0 -24 -10t-10 -24v-614q0 -14 10 -24t24 -10h614q14 0 24 10t10 24v358q0 10 -7.5 18t-17.5 8v0zM858 748l-47 48q-11 10 -24.5 10t-23.5 -10l-362 -360v-2
l2 -1l-2 3l-58 -136l2 -2l1.5 4t-0.5 3q-3 -4 -3 -10t3 -11q4 -4 10 -4t11 4l-3 -0.5t-2 0.5l2 -2l133 57l361 362q11 9 11 23t-11 24v0zM377 315l48 95l48 -49l-96 -46v0zM425 410v0v0v0zM498 387l-49 49l266 266l50 -49l-267 -266v0zM787 675l-50 49l48 48l50 -49l-48 -48
v0z" />
    <glyph glyph-name="H" unicode="H" 
d="M759 226q-24 0 -41.5 -17.5t-17.5 -42.5q0 -24 17.5 -41.5t41.5 -17.5q25 0 42.5 17.5t17.5 41.5q0 25 -17.5 42.5t-42.5 17.5v0zM759 141q-10 0 -17.5 7.5t-7.5 17.5q0 11 7.5 18.5t17.5 7.5q11 0 18.5 -7.5t7.5 -18.5q0 -10 -7.5 -17.5t-18.5 -7.5v0zM213 124h323v0v0
v0v0v0v0q10 0 17 6.5t8 17.5v3q0 10 -7.5 17t-17.5 7v0v0v0v0v0v0h-331l2 8.5t5 17.5q16 74 69.5 130t126.5 76v0q8 4 13.5 12t5.5 17q0 12 -7 20.5t-17 11.5q-35 20 -57 55t-22 79q0 64 45 108.5t109 44.5t108.5 -44.5t44.5 -108.5q0 -46 -24 -83.5t-63 -56.5v0
q-6 -5 -10.5 -12t-4.5 -16t4 -16t11 -11v0q2 0 3 -1t3 -1q2 -1 4.5 -1.5t5.5 -1.5q28 -9 52.5 -23t46.5 -32v0q4 -2 8 -4.5t9 -2.5q10 0 17.5 8t7.5 18q0 4 -1 7.5t-2 6.5v0v0v0q-3 2 -4.5 5t-5.5 7q-19 15 -40 27.5t-44 21.5q36 28 58 70t22 92q0 43 -16 80t-44 65t-65 44
t-79 16q-43 0 -80 -16t-65 -44t-44 -65t-16 -80q0 -50 21.5 -92t58.5 -70q-41 -17 -75.5 -44t-60.5 -61.5t-42.5 -75t-21.5 -85.5v0q-1 -6 -1 -9v-8q0 -14 10.5 -24t23.5 -10h25zM886 143q1 5 1 11v12v11.5t-1 11.5l19 20q5 4 6.5 9t-1.5 10l-21 36q-2 5 -8 5.5t-12 -0.5
l-28 -7q-9 8 -19 14t-22 10l-6 27q-2 7 -5.5 11.5t-8.5 4.5h-43q-6 0 -9 -4.5t-4 -11.5l-7 -25q-12 -4 -22 -10.5t-19 -13.5l-27 7q-6 1 -11.5 0.5t-7.5 -6.5l-21 -35q-2 -6 0.5 -10.5t4.5 -8.5l19 -21q-1 -6 -1.5 -11.5t-0.5 -12.5q0 -6 0.5 -12t1.5 -11l-19 -21
q-3 -4 -6 -9t1 -10l21 -36q2 -5 7.5 -5.5t11.5 0.5l27 7q9 -8 19 -13t22 -9l8 -27q2 -5 5.5 -10.5t8.5 -5.5h43q6 0 9 5.5t4 10.5l9 27q10 4 20 10t19 12l27 -7q7 -1 12 -0.5t9 5.5l20 36q3 5 1 10t-6 9l-20 21v0zM853 166q0 -6 -1 -12t-2 -11l20 -18q4 -2 6.5 -5.5
t0.5 -6.5l-12 -20q-1 -3 -5.5 -3t-7.5 1l-26 9q-9 -8 -19 -14t-22 -10l-5 -27q-1 -4 -3 -8t-6 -4h-23q-4 0 -6 4t-3 8l-5 27q-12 3 -22.5 9t-18.5 15l-26 -9q-4 -1 -8 -1.5t-5 3.5l-12 20q-2 3 0.5 6.5t6.5 5.5l20 18q-1 5 -2 11t-1 12q0 7 1 12.5t2 11.5l-20 17
q-3 3 -6 6.5t-1 5.5l12 21q1 2 5 2.5t8 -1.5l24 -8q9 9 19.5 15t23.5 9l5 25q0 6 2.5 9t6.5 3h23q4 0 6 -3t3 -9l5 -25q12 -4 22.5 -9.5t18.5 -14.5l26 8q3 2 7.5 2.5t5.5 -3.5l12 -21q2 -2 -0.5 -5.5t-6.5 -6.5l-20 -17q1 -6 2 -11.5t1 -12.5v0z" />
    <glyph glyph-name="I" unicode="I" 
d="M640 209h-469v512h614v-15v-0.5v-1.5v-300q0 -11 7.5 -18.5t18.5 -7.5q10 0 17.5 7.5t7.5 18.5v112v0v0v220q0 16 -10 26t-26 10h-645q-15 0 -25.5 -10t-10.5 -26v-542q0 -16 10.5 -26t25.5 -10h304v0v0h181q10 0 18 7.5t8 17.5q0 11 -8 18.5t-18 7.5v0zM937 243h-84v86
q0 7 -4.5 12t-12.5 5q-7 0 -12 -5t-5 -12v-86h-87q-8 0 -12.5 -4.5t-4.5 -12.5t4.5 -12.5t12.5 -4.5h87v-85q0 -8 5 -12.5t12 -4.5q8 0 12.5 4.5t4.5 12.5v85h84q8 0 12.5 4.5t4.5 12.5t-4.5 12.5t-12.5 4.5v0zM720 682l-251 -210l-233 212q-6 5 -12.5 4t-11.5 -6t-4.5 -12
t5.5 -12l244 -222q4 -3 8 -4t8 1q2 0 4.5 1t3.5 2l260 219q5 5 6 11.5t-5 11.5q-3 7 -10 8t-12 -4v0z" />
    <glyph glyph-name="J" unicode="J" 
d="M939 853h-854q-17 0 -29.5 -12.5t-12.5 -29.5v-726q0 -17 12.5 -29.5t29.5 -12.5h854q17 0 29.5 12.5t12.5 29.5v726q0 17 -12.5 29.5t-29.5 12.5v0zM917 107h-810v682h810v-682v0zM288 535q30 0 52.5 21.5t22.5 51.5t-22.5 53.5t-52.5 23.5t-52.5 -23.5t-22.5 -53.5
t22.5 -51.5t52.5 -21.5v0zM288 640q13 0 22.5 -9t9.5 -23q0 -13 -9 -22.5t-23 -9.5q-13 0 -22.5 9t-9.5 23t9.5 23t22.5 9v0zM186 265l100 100l166 -143q7 -7 15.5 -7t14.5 7v0v2v0v0l250 250l102 -81q7 -7 15.5 -7t14.5 7q6 6 6 14.5t-6 14.5l-119 92q-4 3 -8.5 5t-9.5 2
q-4 0 -7.5 -2t-6.5 -5l-246 -249l-164 142q-3 4 -7.5 5.5t-9.5 1.5t-9.5 -1.5t-7.5 -5.5l-113 -113q-7 -6 -7 -14.5t7 -14.5q6 -7 15.5 -7t14.5 7v0z" />
    <glyph glyph-name="L" unicode="L" 
d="M676 691h-405q-10 0 -15.5 -6t-5.5 -15q0 -10 5.5 -15.5t15.5 -5.5h405q10 0 16 5.5t6 15.5q0 8 -6 14.5t-16 6.5v0zM373 94v0h-192q-6 0 -10.5 4.5t-4.5 12.5v712q0 7 4.5 12.5t10.5 5.5h587q6 0 10.5 -5t4.5 -13v-206q0 -13 9.5 -22.5t22.5 -9.5t22.5 9.5t9.5 22.5v256
q0 12 -9.5 22t-22.5 10h-683q-13 0 -22.5 -10t-9.5 -22v-811q0 -13 9.5 -22.5t22.5 -9.5h147h1.5h1.5h85q13 0 22.5 9.5t9.5 22.5q0 11 -7 20.5t-19 11.5v0zM676 521h-405q-10 0 -15.5 -6t-5.5 -16q0 -9 5.5 -15t15.5 -6h405q10 0 16 6t6 15q0 8 -6 15t-16 7v0zM815 243
q-13 0 -22.5 -9.5t-9.5 -22.5v-100q0 -5 -3 -9t-8 -6h-96q-14 0 -24 -9.5t-10 -22.5t10 -22.5t24 -9.5h141q13 0 22.5 9.5t9.5 22.5v149q-2 12 -11 21t-23 9v0zM941 491l-19 15q-15 12 -35.5 11t-33.5 -16l-322 -341q-1 -2 -1.5 -2.5t-2.5 -1.5v0v0l-92 -186l175 103
q2 1 3.5 1.5t5.5 2.5l324 350q14 14 13 32.5t-15 31.5v0zM913 446q-9 -9 -60.5 -64t-110 -117.5t-106 -113.5l-47.5 -51l-62 -32l30 64l318 344l1.5 2t4.5 2q11 5 24.5 -6t11.5 -24l-0.5 -0.5l-3.5 -3.5v0z" />
    <glyph glyph-name="M" unicode="M" 
d="M427 597h149q10 0 15.5 6t5.5 16q0 9 -5.5 15t-15.5 6h-149q-10 0 -16 -6t-6 -15q0 -10 6 -16t16 -6v0zM661 597h150q9 0 15 6t6 16q0 9 -6 15t-15 6h-150q-9 0 -15 -6t-6 -15q0 -10 6 -16t15 -6v0zM427 427h149q10 0 15.5 5.5t5.5 15.5t-5.5 15.5t-15.5 5.5h-149
q-10 0 -16 -5.5t-6 -15.5t6 -15.5t16 -5.5v0zM661 427h150q9 0 15 5.5t6 15.5t-6 15.5t-15 5.5h-150q-9 0 -15 -5.5t-6 -15.5t6 -15.5t15 -5.5v0zM192 597h149q10 0 16 6t6 16q0 9 -6 15t-16 6h-149q-10 0 -15.5 -6t-5.5 -15q0 -10 5.5 -16t15.5 -6v0zM939 853h-875
q-18 0 -30.5 -12.5t-12.5 -29.5v-726q0 -17 12.5 -29.5t30.5 -12.5h875q17 0 29.5 12.5t12.5 29.5v726q0 17 -12.5 29.5t-29.5 12.5v0zM917 107h-832v682h832v-682v0zM192 427h149q10 0 16 5.5t6 15.5t-6 15.5t-16 5.5h-149q-10 0 -15.5 -5.5t-5.5 -15.5t5.5 -15.5
t15.5 -5.5v0zM427 256h149q10 0 15.5 6t5.5 15q0 10 -5.5 16t-15.5 6h-149q-10 0 -16 -6t-6 -16q0 -9 6 -15t16 -6v0z" />
    <glyph glyph-name="N" unicode="N" 
d="M512 640q-44 0 -83 -17t-68 -46t-45.5 -67.5t-16.5 -82.5t16.5 -83t45.5 -68t68 -46t83 -17t83 17t68 46t45.5 68t16.5 83t-16.5 82.5t-45.5 67.5t-68 46t-83 17v0zM512 256q-70 0 -120.5 50t-50.5 121q0 70 50.5 120t120.5 50t120.5 -50t50.5 -120q0 -71 -50.5 -121
t-120.5 -50v0zM956 768h-205l-28 43l-40 62v2h-340v2l-23 -36l-49 -73h-205q-19 0 -32 -12.5t-13 -30.5v-661q0 -16 14 -29.5t31 -13.5h892q17 0 31 14.5t14 30.5v659q0 18 -14 30.5t-33 12.5v0zM939 85h-854v619h220l70 107h271l71 -107h222v-619v0z" />
    <glyph glyph-name="O" unicode="O" 
d="M783 601q-1 0 -1.5 1t-1.5 2t-2 1.5t-1 1.5l-0.5 -0.5t-1.5 -0.5q-1 1 -2.5 1h-3.5q-6 0 -11 -5t-5 -11q0 -2 1 -4.5t2 -5.5v0v0q26 -25 40.5 -59.5t14.5 -73.5t-14.5 -73.5t-40.5 -59.5l0.5 -0.5l0.5 -0.5q-1 -3 -2.5 -5.5t-1.5 -5.5q0 -6 5 -11t11 -5q5 0 9 3t6 8
q27 29 43 68t16 82q0 44 -16 83t-44 70v0zM682 737l-0.5 0.5l-0.5 0.5h-0.5t-1.5 1v0.5t-1 0.5q0 1 -0.5 1h-0.5l-0.5 0.5l-0.5 0.5l-0.5 0.5l-0.5 0.5l-0.5 0.5t-0.5 1.5q-1 0 -1 0.5t-1 0.5h-0.5h-0.5h-1l-1 1h-0.5h-0.5h-1.5h-0.5h-0.5h-0.5h-1h-1h-0.5h-0.5h-0.5h-1.5v0
h-1t-1.5 -0.5t-1.5 -0.5v0v0l-0.5 -0.5l-0.5 -0.5l-271 -158h-149q-9 0 -15.5 -6.5t-6.5 -15.5v-234q0 -9 6.5 -15.5t15.5 -6.5h149l274 -156l0.5 -0.5t0.5 -1.5v0v0q1 0 2 -0.5l1 -0.5h0.5h0.5h1.5h1.5h0.5h0.5h0.5h0.5v0h1h1h1h0.5h0.5q1 0 1 0.5t1 0.5h0.5h0.5q1 0 1.5 1
l0.5 1h0.5t0.5 1l0.5 0.5l0.5 0.5h1t1 1l0.5 0.5l0.5 0.5v0.5t1 0.5v0l1 1v0.5t1 0.5v0v0q1 2 1 4v5v560q-3 1 -3.5 3.5t-0.5 4.5v0v0v0zM373 352q0 -5 -3 -8t-7 -3h-107q-5 0 -8 3t-3 8v192q0 5 3 8t8 3h107q4 0 7 -3t3 -8v-192v0zM651 194l-246 141v226l246 141v-508v0z
" />
    <glyph glyph-name="P" unicode="P" 
d="M814 538q-11 17 -27.5 22.5t-44.5 5.5h-171q22 56 18.5 94.5t-6.5 45.5q-2 7 -21 45.5t-65 35.5q-40 0 -47.5 -43t-11.5 -55q0 -10 -28.5 -68t-86.5 -66h-2h-0.5h-0.5h-85h-0.5h-0.5h-21q-8 0 -14.5 -6.5t-6.5 -15.5v-312v-2v-1v-2v-2v-1q0 -8 6.5 -14.5t14.5 -6.5h4h0.5
h1.5h469q10 0 21.5 2.5t21.5 9.5q22 14 27 31.5t4 8.5l56 236v2v2q3 13 3 27.5t-7 26.5v0zM309 235q0 -5 -3 -8t-7 -3h-64q-5 0 -8 3t-3 8v277q0 5 3 8t8 3h64q4 0 7 -3t3 -8v-277v0zM789 495l-9 -35t-20 -78t-21.5 -81t-12.5 -44q-11 -21 -29 -27l-18 -6h-320h0.5h1.5
q-13 3 -16 10.5l-3 7.5v-1v265l1 4t7 8q45 24 75 68t39 71q8 22 9.5 58t26.5 37q30 1 44 -29t14 -53q1 -75 -23 -106t32 -31h186q22 0 29 -16t7 -22v0z" />
    <glyph glyph-name="Q" unicode="Q" 
d="M341 512q-17 0 -29.5 -12.5t-12.5 -30.5q0 -17 12.5 -29.5t29.5 -12.5q18 0 30.5 12.5t12.5 29.5q0 18 -12.5 30.5t-30.5 12.5v0zM512 512q-18 0 -30.5 -12.5t-12.5 -30.5q0 -17 12.5 -29.5t30.5 -12.5t30.5 12.5t12.5 29.5q0 18 -12.5 30.5t-30.5 12.5v0zM683 512
q-18 0 -30.5 -12.5t-12.5 -30.5q0 -17 12.5 -29.5t30.5 -12.5q17 0 29.5 12.5t12.5 29.5q0 18 -12.5 30.5t-29.5 12.5v0zM811 725h-598q-8 0 -14.5 -6t-6.5 -15v-459q0 -8 6.5 -14.5t14.5 -6.5h191l93 -92l15 -15l107 107h192q8 0 14.5 6.5t6.5 14.5v459q0 9 -6.5 15
t-14.5 6v0zM800 267q0 -5 -3 -8t-8 -3h-182l-32 -32l-63 -62l-63 62l-32 32h-182q-5 0 -8 3t-3 8v416q0 4 3 7t8 3h554q5 0 8 -3t3 -7v-416v0z" />
    <glyph glyph-name="R" unicode="R" 
d="M512 768q-66 0 -124.5 -25t-102 -68.5t-68.5 -102t-25 -124.5t25 -124.5t68.5 -102t102 -68.5t124.5 -25t124.5 25t102 68.5t68.5 102t25 124.5t-25 124.5t-68.5 102t-102 68.5t-124.5 25v0zM512 160q-60 0 -112 22.5t-91.5 62t-62 91.5t-22.5 112t22.5 112t62 91.5
t91.5 62t112 22.5t112 -22.5t91.5 -62t62 -91.5t22.5 -112t-22.5 -112t-62 -91.5t-91.5 -62t-112 -22.5v0zM686 400v0v0q-2 0 -4 -0.5t-5 -2.5q0 -1 -1.5 -2.5t-1.5 -3.5q-1 0 -1 -1t-1 -2q-6 -13 -19.5 -33.5t-50.5 -19.5q-3 0 -4.5 0.5t-3.5 1.5l56 209q1 7 -2.5 12.5
t-9.5 6.5q-7 2 -12.5 -1.5t-6.5 -9.5l-13 -48q-9 37 -33 60t-58 28q-48 8 -89 -29t-52 -99q-10 -61 16.5 -109.5t74.5 -56.5q22 -4 43 2.5t39 20.5q5 -7 16.5 -16t33.5 -9q56 1 83 41.5t17 53.5q-2 3 -5 5t-6 2v0zM575 434q-8 -48 -38.5 -77.5t-65.5 -23.5q-35 5 -53.5 43.5
t-10.5 86.5q9 48 39.5 77.5t64.5 23.5t53 -44t11 -86v0z" />
    <glyph glyph-name="S" unicode="S" 
d="M740 425q5 3 10 7.5t10 8.5q4 4 7 7.5t7 6.5l6 8l6 8t6.5 8.5t5.5 8.5q4 6 7 11.5t6 11.5q1 3 2.5 5.5t2.5 5.5q3 8 6 16.5t5 17.5q0 2 0.5 4.5t0.5 4.5q2 10 3 20t1 20q0 41 -14 77.5t-38.5 65.5t-58 49t-72.5 27q-13 0 -20 -7.5t-8 -18.5q0 -11 6 -22t24 -18
q50 -14 83.5 -56t33.5 -97q0 -75 -45 -115.5l-45 -40.5q-13 -11 -13 -22.5v-11.5q8 -20 20 -27.5t43 -21.5q71 -26 117 -87.5t50 -140.5v-2.5t1 -6.5l-1 2h0.5h0.5v0.5v0.5v0v-1v0v0v-1.5v-1.5q1 -9 8 -20t23 -11q24 -1 27.5 16.5t3.5 18.5q-3 50 -20.5 96t-46 84t-67.5 67
t-84 46v0zM702 161q0 3 -0.5 5.5t-0.5 5.5q-1 6 -2 11.5t-3 11.5q0 3 -1 6l-2 6q-1 5 -2.5 10.5t-3.5 10.5l-2 6t-2 5q-2 6 -4 11t-5 10q-1 3 -2 5t-2 5q-3 5 -6 10.5t-7 11.5q-1 1 -2 3t-2 3q-4 7 -8 13t-9 12q-1 0 -1.5 1l-0.5 1q-25 31 -57.5 55.5t-69.5 39.5
q46 30 73.5 79t27.5 108q0 46 -17.5 86.5t-48 71t-71.5 48t-87 17.5q-47 0 -87.5 -17.5t-71 -48t-48 -71t-17.5 -86.5q0 -59 27.5 -108t73.5 -79q-60 -25 -106 -71.5t-69 -106.5q-1 -1 -1 -2t-1 -2q-2 -7 -4.5 -14.5t-4.5 -14.5q-1 -2 -1.5 -4.5t-0.5 -4.5q-2 -7 -3 -13.5
t-3 -13.5q0 -3 -0.5 -5t-0.5 -5q-1 -5 -1.5 -14t-0.5 -10l0.5 -4.5t0.5 -7.5l5.5 -11.5t24.5 -11.5q23 0 27 17.5l4 17.5v2v2q3 50 23.5 93t54.5 75.5t78 52t94 20.5h8h8q50 -1 94 -20.5t77.5 -51.5t54.5 -75.5t24 -92.5v-4v-4l4 -17t26 -17q12 0 20 7t10 17l1 1.5t1 5.5v0
v0v0q0 7 -0.5 14t-1.5 14v0zM384 446q-67 0 -113.5 46.5t-46.5 112.5t46.5 112.5t113.5 46.5q66 0 113 -46.5t47 -112.5t-47 -112.5t-113 -46.5v0zM896 128v0v0v1v0v-1v0z" />
    <glyph glyph-name="T" unicode="T" 
d="M681 334q4 -3 8.5 -5t10.5 -2q13 0 22.5 9.5t9.5 22.5q0 7 -2.5 12.5t-7.5 10.5v0l-0.5 0.5t-1.5 0.5q-2 2 -4.5 3t-4.5 2q-16 10 -32 18.5t-34 15.5q56 33 89.5 91t33.5 127q0 53 -20 99.5t-55 81.5t-81.5 55t-99.5 20t-99.5 -20t-81.5 -55t-55 -81.5t-20 -99.5
q0 -69 34 -127t89 -91q-51 -19 -94 -50.5t-75.5 -73.5t-53 -92t-25.5 -106q-1 0 -1 -1v-2v0v0v-1.5v-1.5l5 -14.5t27 -14.5q12 0 21 8.5t10 20.5v0q1 1 1 1.5v0.5v1v0v0.5v0.5q7 59 34 111t69.5 90.5t97.5 60t117 21.5q46 0 89 -12.5t79 -34.5h1v0zM320 640q0 79 56.5 135.5
t135.5 56.5q80 0 136 -56.5t56 -135.5t-56 -135.5t-136 -56.5q-79 0 -135.5 56.5t-56.5 135.5v0zM875 183v0q-4 8 -11.5 13t-17.5 5q-13 0 -22 -9.5t-9 -22.5q0 -4 1 -8t2 -7q5 -14 8 -29t4 -30h0.5t0.5 -1q0 -13 9 -22.5t22 -9.5t22.5 9.5t9.5 22.5v0v0q-2 24 -7 46t-12 43
v0zM917 404q-9 9 -22.5 9t-22.5 -9l-313 -312q-1 -2 -2 -3t-2 -3v1l-31 -50q-2 -1 -3 -2.5t-1 -3.5l-1 -1l1 -1q-2 -4 -1 -8.5t5 -7.5q3 -3 7.5 -3.5t8.5 0.5v0h1q6 3 6.5 3t1.5 1l44 25l1 1v0l5 3v0q1 1 2.5 1.5t2.5 2.5l313 312q10 9 10 22t-10 23v0z" />
    <glyph glyph-name="U" unicode="U" 
d="M829 830h-512q-12 0 -22.5 -10t-10.5 -23q0 -12 10.5 -22t22.5 -10h479q13 0 23 -10t10 -23v-292q0 -12 10 -22.5t22 -10.5q13 0 23 10.5t10 22.5v325q0 30 -17.5 47.5t-47.5 17.5v0zM707 700h-544q-25 0 -45 -20.5t-20 -44.5v-382q0 -24 20 -44.5t45 -20.5h65v-122h65
l130 130h284q24 0 44.5 20.5t20.5 44.5v382q-6 24 -23.5 40.5t-41.5 16.5v0zM707 285q0 -12 -10 -22t-22 -10h-293l-98 -98v98h-89q-18 0 -25 10t-7 22v326q0 12 10 22t22 10h480q12 0 22 -10t10 -22v-326v0z" />
    <glyph glyph-name="V" unicode="V" 
d="M918 724q-12 13 -24 13t-24 -13l-480 -479q-12 -12 -12 -24.5t12 -24.5t24.5 -12t24.5 12l479 480q13 12 13 24t-13 24v0zM861 415q-12 0 -22 -10t-10 -22v-195q0 -24 -20.5 -44.5t-44.5 -20.5h-512q-24 0 -44.5 20.5t-20.5 44.5v512q0 24 20.5 44.5t44.5 20.5h479
q13 0 23 10t10 22q0 13 -10 23t-23 10h-536q-30 0 -47.5 -20.5t-17.5 -44.5v-634q0 -30 20.5 -47.5t44.5 -17.5h634q30 0 47.5 20.5t17.5 44.5v252q0 12 -10 22t-23 10v0z" />
    <glyph glyph-name="W" unicode="W" 
d="M954 428q-72 43 -117 2t-52 -51h-2q-6 10 -45 47.5t-103 11.5q-12 9 -24.5 16.5t-26.5 14.5q40 33 64 80.5t24 103.5q0 49 -19 93t-51.5 76.5t-76.5 51t-93 18.5q-50 0 -94 -18.5t-76.5 -51t-51 -76.5t-18.5 -93q0 -52 20.5 -97t55.5 -78q-89 -43 -136.5 -100t-69.5 -108
t-25.5 -86.5l-3.5 -35.5q1 -11 11 -19t22 -8t21 8t10 19l1 1q0 1 -0.5 0.5l-0.5 -0.5q0 1 0.5 2l0.5 1v0.5v0.5q4 51 23.5 96.5t50.5 82.5t72 63.5t89 39.5q1 0 20.5 5t20.5 25q0 21 -11 26.5l-11 5.5q-43 22 -69.5 63.5t-26.5 92.5q0 73 51.5 124t124.5 51t124.5 -51
t51.5 -124q0 -54 -29 -96t-75 -63q-11 -2 -17.5 -10.5t-6.5 -20.5q0 -13 10.5 -20.5t26.5 -13.5q16 -5 32 -12.5t30 -16.5q-53 -56 -29.5 -123t73.5 -126t102.5 -100t58.5 -45q6 4 64.5 50t110 110.5t65 136t-69.5 125.5v0zM825 115l-17.5 -15t-23.5 -15q-8 0 -32.5 21.5
l-24.5 21.5q-26 24 -53.5 54.5t-45.5 62.5t-19.5 62.5t23.5 53.5q39 44 90.5 0t61.5 -62v15v-16q3 6 24 28t41 38q21 16 45 17t42 -15q28 -23 23.5 -54.5t-26 -65.5t-52 -68t-56.5 -63v0z" />
    <glyph glyph-name="X" unicode="X" 
d="M853 797h-682q-31 0 -52 -25t-21 -56v-552q0 -31 21 -52.5t52 -21.5h682q31 0 52 21.5t21 52.5v552q0 31 -21 56t-52 25v0zM837 741l-325 -317l-325 317h650v0zM861 164h-698v512l325 -317q6 -6 12 -7.5t12 -1.5t12 1.5t12 7.5l334 317v-512h-9z" />
    <glyph glyph-name="Y" unicode="Y" 
d="M971 521q-15 25 -38.5 38.5t-50.5 16.5h-239q14 35 22 73t8 78q0 12 -1 23.5t-2 23.5l-16.5 59t-93.5 59q-45 0 -76.5 -31.5t-31.5 -76.5v-9.5t0 -2.5q0 -45 -16 -85t-44.5 -70t-66.5 -49.5t-82 -23.5h-146h-0.5h-0.5h-2h1v0q-6 -1 -11.5 -3.5t-10.5 -6.5q-4 -4 -6.5 -10
t-2.5 -12v-479q0 -7 2.5 -13t7.5 -10q4 -5 9 -7.5t11 -2.5h1v0v0h719q-8 0 12 3t37 14q23 15 36 37t15 46q0 1 0.5 0t0.5 0l74 356q0 17 -4 33.5t-14 31.5v0zM224 64h-96v416h96v-416v0zM857 119q1 3 0.5 2t-1.5 -7l1 5q-1 -6 -7.5 -24t-15.5 -23q-11 -7 -17.5 -7.5
l-6.5 -0.5h-522v427q37 11 71 31t61.5 47t48.5 58.5t33 65.5v0v0q3 8 5 16t2 14q3 27 4.5 47l1.5 20l6.5 21t36.5 21q18 0 31 -11.5t16 -30.5q1 -2 2 -14.5t1 -46.5q-2 -35 -6.5 -60t-7.5 -35q-5 -18 -11.5 -32.5t-14.5 -30.5l-4 -7t-4 -20t9 -22.5t22 -9.5l291 -2
q11 0 21.5 -5t17.5 -15q4 -7 5 -14t1 -14l-70 -343v0z" />
    <glyph glyph-name="Z" unicode="Z" 
d="M987 470q0 13 -4 26.5t-12 25.5q-16 27 -43 40t-56 12q-2 1 -3.5 1.5t-2.5 0.5h-222q13 33 20 69.5t7 73.5q0 11 0.5 21t-1.5 19q2 6 1.5 12t-0.5 12q0 46 -32.5 79t-78.5 33t-76.5 -33t-30.5 -79q0 -7 -0.5 -10l-0.5 -3q0 -45 -16 -84.5t-44.5 -70t-66.5 -49.5t-82 -24
h-146v0v0h-3h0.5h1.5q-6 0 -12 -2.5t-10 -6.5q-5 -4 -8 -9.5t-3 -12.5v-478v-1v-1v0v0q0 -13 8.5 -22t20.5 -9h705h0.5h0.5h12q-5 0 12.5 4t33.5 13q20 13 32.5 32t16.5 41q1 1 2 2.5t2 3.5l74 337q0 1 0.5 3.5t0.5 4.5l3 14q2 4 2 7.5t-2 7.5v0z" />
    <glyph glyph-name="a" unicode="a" 
d="M591 434q33 22 53.5 57.5t20.5 78.5q0 66 -46.5 113t-112.5 47q-67 0 -113.5 -47t-46.5 -113q0 -45 21.5 -81.5t57.5 -56.5q-66 -24 -111 -79.5t-55 -127.5q0 -1 -0.5 -2.5t-0.5 -3.5v0v0v0v-1v0q1 -21 13.5 -23.5l12.5 -2.5h71h156.5h156.5h71l13.5 2.5t13.5 24.5l-4 25
t-21.5 59.5t-52.5 71t-97 59.5v0zM704 218h-421l2 12t6 26v0q17 59 62 102.5t106 57.5l4.5 3t4.5 11q0 5 -2.5 8.5t-7.5 5.5q-38 14 -62.5 48t-24.5 78q0 55 39.5 94.5t95.5 39.5q55 0 94.5 -39.5t39.5 -94.5q0 -41 -22 -74t-57 -49l-5.5 -3t-5.5 -12q0 -7 5.5 -11l5.5 -4
q61 -13 107 -55.5t64 -102.5v0v0v0v0q0 1 0 0.5v-0.5q4 -14 6.5 -27.5l2.5 -13.5h-37v0z" />
    <glyph glyph-name="b" unicode="b" 
d="M725 645l-219 -184l-207 186q-5 4 -10.5 4t-9.5 -5q-4 -4 -3.5 -9.5t4.5 -9.5l34 -30.5t75 -67t75 -67l34 -30.5q4 -3 8.5 -3t8.5 3l228 192q5 4 5.5 9.5t-3.5 9.5q-4 5 -9.5 5.5t-10.5 -3.5v0zM765 691h-506q-12 0 -20.5 -8t-8.5 -20v-418q0 -11 8.5 -19t20.5 -8h506
q12 0 20.5 8t8.5 19v418q0 12 -8.5 20t-20.5 8v0zM768 257q0 -6 -4 -10t-10 -4h-484q-6 0 -10 4t-4 10v395q0 5 4 9.5t10 4.5h484q6 0 10 -4.5t4 -9.5v-395v0z" />
    <glyph glyph-name="c" unicode="c" 
d="M467 730q-49 0 -92 -19t-75 -51t-51 -75t-19 -92t19 -92.5t51 -75.5t75 -50.5t92 -18.5t92.5 18.5t75.5 50.5t50.5 75.5t18.5 92.5t-18.5 92t-50.5 75t-75.5 51t-92.5 19v0zM467 282q-44 0 -82.5 16.5t-67 45t-45 67t-16.5 82.5t16.5 82.5t45 67t67 45t82.5 16.5
t82.5 -16.5t67 -45t45 -67t16.5 -82.5t-16.5 -82.5t-45 -67t-67 -45t-82.5 -16.5v0zM777 203l-109 109q-4 4 -9.5 4t-9.5 -4t-4 -10t4 -10l108 -109q4 -4 10 -4t10 4q4 5 4 10.5t-4 9.5v0z" />
    <glyph glyph-name="d" unicode="d" 
d="M732 409q1 11 -5.5 10.5t-25.5 -0.5q1 0 0 15t-2 15q-43 0 -31.5 16t-9.5 16q-11 0 -17 -0.5t-16 0.5h-32t-19 2v16v13l-0.5 0.5l-0.5 0.5q-2 3 -26.5 1t-29.5 -5q-7 -3 -4 -15.5t-3 -12.5q-9 1 -16.5 -1.5t-10.5 -0.5q-4 4 -2 -12.5t1 -15.5q3 -2 16.5 -2t13.5 -5
q0 -11 -0.5 -25.5t-0.5 -26.5q0 -13 16.5 -5.5t16.5 -6.5q0 -36 -0.5 -61t-1.5 -27q-1 -3 -10 -2t-18 1q-1 0 -2.5 -48t0.5 -48q7 0 19 0.5l12 0.5q1 1 -0.5 14.5t4.5 16.5q5 2 13.5 -0.5t11.5 2.5q5 8 3.5 19t1.5 11q14 0 37.5 -0.5t23.5 4.5q0 25 0.5 40t3.5 19
q3 2 28.5 0.5t28.5 1.5q3 5 2 15.5t4 13.5q4 3 13.5 0t12.5 2q3 7 2 28t-1 26v0zM743 678q-48 48 -108 72t-122.5 24t-123 -24t-108.5 -72q-47 -47 -71 -107t-24 -123t24 -123t71 -108q48 -47 108 -71t123 -24t123 24t107 71q48 48 72 108t24 122.5t-23.5 123t-71.5 107.5v0
zM714 244q-42 -41 -94.5 -61.5t-107.5 -20.5t-108 20.5t-95 61.5q-31 30 -50.5 66t-27.5 75t-4.5 79t17.5 78l18 2t10 0q4 -2 2 -0.5t5 -0.5q5 -1 4 -1t1 7q1 4 4.5 17t8.5 9q8 -7 27 -1.5t24 -1.5q5 -6 1 -33t5 -28q17 -2 26.5 -0.5t31.5 -0.5q2 -1 2.5 14.5t-7.5 15.5
q19 -1 31 10t6 23q-5 10 0.5 22t0.5 14q10 -4 35.5 -6t27.5 23q2 27 -0.5 29.5t2.5 8.5q6 7 16 5.5t13 -2.5q1 38 1 41.5v23.5q48 -8 92.5 -32t81.5 -61q42 -40 63 -92t21 -105.5t-21 -105.5t-63 -92v0z" />
    <glyph glyph-name="e" unicode="e" 
d="M807 435q-53 31 -85.5 1t-36.5 -36q-3 6 -35.5 36t-85.5 -1l-0.5 -0.5l-0.5 -0.5q-8 4 -16 8.5t-17 7.5q29 23 47 57t18 73q0 69 -48.5 117t-116.5 48t-116.5 -48t-48.5 -117q0 -40 18 -74t48 -57q-72 -28 -118.5 -92t-49.5 -145h1v-1v-2q0 -8 6 -14t14 -6q9 0 15 6t6 14
v2v1v0q3 78 52.5 136t122.5 75l12 4t13 17q0 13 -7 17l-7 4q-37 13 -60.5 44.5t-23.5 71.5q0 51 36 87t87 36t87 -36t36 -87q0 -42 -25 -74t-63 -43l-6 -3.5t-6 -17.5q0 -8 7 -13.5t16 -5.5q-12 0 5 -1.5t50 -17.5q-29 -38 -10.5 -83.5t53.5 -84.5t71 -66.5t40 -31.5v0v0v0
h0.5h0.5v0q5 4 46.5 36.5t78 77.5t46 94.5t-49.5 87.5v0zM689 185l-3 -2v0v0q-9 5 -36.5 28t-53 54t-39 64t4.5 58l1 -1v0v1q1 2 3 4t4 3q0 1 0.5 1.5l1.5 1.5q3 2 7 4l8 4q1 0 1.5 0.5t1.5 0.5q13 4 27.5 1t26.5 -12q17 -12 27.5 -26.5t13.5 -19.5v-1v0v0h0.5h0.5v1
q2 5 13 19.5t27 26.5q18 13 38 13.5t35 -11.5q28 -22 19 -55t-33.5 -65t-54 -58t-41.5 -34v0z" />
    <glyph glyph-name="f" unicode="f" horiz-adv-x="724" 
d="M651 514q-10 15 -25 24t-32 10l-150 1q9 22 14 45.5t5 49.5q0 7 -0.5 14.5t-1.5 14.5l-10.5 37t-58.5 37q-28 0 -48 -20t-20 -48v-6t0 -1q0 -57 -38 -97.5t-93 -46.5h-92v0v0h-1v0v0q-4 0 -7.5 -1.5t-6.5 -4.5t-4.5 -6.5t-1.5 -7.5v-301q0 -4 2 -8t5 -6q2 -3 5.5 -4.5
t7.5 -1.5v0v0v0h452q-5 0 7.5 2t23.5 8q14 9 22 23t10 30v-0.5v-0.5l47 224q0 11 -2.5 21t-8.5 20v0zM181 227h-60v261h60v-261v0zM579 262q0 1 0 0.5t-1 -4.5l1 4q-1 -4 -5 -15.5t-10 -14.5q-6 -5 -10.5 -5h-4.5h-328v268q47 14 83.5 49t50.5 78h0.5h0.5q1 5 2.5 10t1.5 9
q2 17 3 29.5l1 12.5l4 13t23 13q11 0 19.5 -7t9.5 -19q1 -1 2 -9t0 -29q-1 -22 -4 -38t-5 -22q-3 -11 -7 -20t-9 -19l-2.5 -5t-2.5 -13t6 -14t14 -6l183 -1q7 0 13.5 -3t10.5 -10q2 -4 3 -8.5t1 -8.5l-44 -215v0z" />
    <glyph glyph-name="g" unicode="g" horiz-adv-x="724" 
d="M651 514q-10 15 -25 24t-32 10l-150 1q9 22 14 45.5t5 49.5q0 7 -0.5 14.5t-1.5 14.5l-10.5 37t-58.5 37q-28 0 -48 -20t-20 -48v-6t0 -1q0 -57 -38 -97.5t-93 -46.5h-92v0v0h-1v0v0q-4 0 -7.5 -1.5t-6.5 -4.5t-4.5 -6.5t-1.5 -7.5v-301q0 -4 2 -8t5 -6q2 -3 5.5 -4.5
t7.5 -1.5v0v0v0h452q-5 0 7.5 2t23.5 8q14 9 22 23t10 30v-0.5v-0.5l47 224q0 11 -2.5 21.5t-8.5 19.5v0z" />
    <glyph glyph-name="h" unicode="h" 
d="M883 403q-5 0 -9 -3.5t-4 -9.5v0v-192q0 -13 -9 -22.5t-22 -9.5h-654q-13 0 -22 9.5t-9 22.5v494q0 13 9 22t22 9h352v0h1q5 0 8.5 4t3.5 9t-3.5 9t-8.5 4v0v0h-365q-19 0 -32 -13t-13 -32v-518q0 -19 13 -32t32 -13h678q19 0 32 13t13 32v204q0 6 -3.5 9.5t-9.5 3.5v0z
M883 749h-185q-6 0 -9.5 -4t-3.5 -9t3.5 -9t9.5 -4h152l-454 -414q-4 -3 -4.5 -8.5t3.5 -9.5t9 -4t9 3l457 417v-157q0 -5 4 -8.5t9 -3.5q6 0 9.5 3.5t3.5 8.5v186q0 5 -3.5 9t-9.5 4v0z" />
    <glyph glyph-name="i" unicode="i" 
d="M819 544v0h-228q4 23 7 48t3 48q0 22 -1.5 43t-4.5 42q0 3 -0.5 6t-1.5 6q0 2 -0.5 3l-0.5 1q-7 29 -30.5 47t-53.5 18q-35 0 -57 -24t-22 -59v-4v-3q0 -79 -41.5 -128.5t-110.5 -62.5h-2v0h-103q-18 0 -31 -13t-13 -31v-335q0 -18 13 -31t31 -13l564 1q1 -1 1.5 -1h1.5
q29 0 51 18.5t28 45.5l76 291v3t1 4q0 32 -22 55t-54 25v0zM275 128h-91q-13 0 -21.5 9t-8.5 22v310q0 12 8.5 21t21.5 9h91v-371v0zM869 460l-25 -103v0l-36 -134v0v0l-15 -44q-5 -18 -18.5 -33.5t-35.5 -17.5h-2h-1h-442v375q64 16 104 58.5t51 103.5q4 18 4.5 34t1.5 20
q0 1 -0.5 2t-0.5 2q0 24 15 41t39 17t41.5 -16.5t19.5 -41.5q1 -1 1 -2.5v-2.5q3 -23 4 -47.5t1 -30.5v-6v-6v-2v-1v0q-2 -27 -6.5 -55t-9.5 -52h260q21 -2 35.5 -17.5t14.5 -36.5v-1.5v-2.5v0z" />
    <glyph glyph-name="k" unicode="k" 
d="M314 538q-19 0 -32 -13.5t-13 -31.5q0 -19 13 -32t32 -13q18 0 31 13t13 32q0 18 -13 31.5t-31 13.5v0zM314 474q-8 0 -14 5.5t-6 13.5t6 13.5t14 5.5t13.5 -5.5t5.5 -13.5t-5.5 -13.5t-13.5 -5.5v0zM512 538q-19 0 -32 -13.5t-13 -31.5q0 -19 13 -32t32 -13t32 13t13 32
q0 18 -13 31.5t-32 13.5v0zM512 474q-8 0 -13.5 5.5t-5.5 13.5t5.5 13.5t13.5 5.5t13.5 -5.5t5.5 -13.5t-5.5 -13.5t-13.5 -5.5v0zM851 800h-678q-19 0 -32 -13t-13 -32v-518q0 -19 13 -32t32 -13h218l121 -120l18 18v0l103 102h218q19 0 32 13t13 32v518q0 19 -13 32
t-32 13v0zM870 249q0 -13 -9 -22t-22 -9h-217l-7 -7v0l-103 -103l-110 110h-217q-13 0 -22 9t-9 22v494q0 13 9 22t22 9h654q13 0 22 -9t9 -22v-494v0zM710 538q-18 0 -31 -13.5t-13 -31.5q0 -19 13 -32t31 -13q19 0 32 13t13 32q0 18 -13 31.5t-32 13.5v0zM710 474
q-7 0 -13 5.5t-6 13.5t6 13.5t13 5.5q8 0 14 -5.5t6 -13.5t-6 -13.5t-14 -5.5v0z" />
    <glyph glyph-name="l" unicode="l" 
d="M445 852q-68 0 -129 -26t-106 -71t-71 -105.5t-26 -129.5t26 -129.5t71 -106t106 -71.5t129 -26q69 0 130 26t106 71.5t71 106t26 129.5t-26 129.5t-71 105.5t-106 71t-130 26v0zM445 207q-64 0 -121 24.5t-99.5 67t-67 99.5t-24.5 122q0 64 24.5 121t67 99.5t99.5 67
t121 24.5q65 0 122 -24.5t99.5 -67t67 -99.5t24.5 -121q0 -65 -24.5 -122t-67 -99.5t-99.5 -67t-122 -24.5v0zM902 72l-192 193q-3 3 -7.5 3t-7.5 -3t-3 -7.5t3 -7.5l193 -192q3 -3 7 -3t7 3t3 7t-3 7v0z" />
    <glyph glyph-name="m" unicode="m" 
d="M701 504q24 0 40.5 16.5t16.5 40.5q0 23 -16.5 39.5t-40.5 16.5q-23 0 -39.5 -16.5t-16.5 -39.5q0 -24 16.5 -40.5t39.5 -16.5v0zM701 602q17 0 29 -12t12 -29t-12 -29t-29 -12t-29 12t-12 29t12 29t29 12v0zM901 791h-778q-21 0 -36 -15t-15 -36v-605q0 -21 15 -36
t36 -15h778q21 0 36 15t15 36v605q0 21 -15 36t-36 15v0zM932 140q0 -15 -10.5 -25.5t-25.5 -10.5h-768q-15 0 -25.5 10.5t-10.5 25.5v595q0 15 10.5 25.5t25.5 10.5h768q15 0 25.5 -10.5t10.5 -25.5v-595v0zM704 394v0h-1q-1 1 -3 2t-4 1t-4 -1t-3 -2v0v0l-100 -100
l-244 243v0v0q-1 2 -3 2.5t-4 0.5t-4 -0.5t-3 -2.5v0h-1l-209 -210q-3 -3 -3 -7t3 -7t7 -3t7 3l203 203l243 -244v0v0q2 -2 4 -2.5t4 -0.5t3.5 0.5t3.5 2.5v0v0l100 100l188 -187q3 -3 7 -3t7 3t3 7t-3 7l-194 195v0z" />
    <glyph glyph-name="n" unicode="n" 
d="M585 393v0v0v0v0v0v0v0zM585 393v0v0v0v0zM647 95h-569q4 57 26 108.5t58 92t83.5 69t102.5 40.5l4 1.5t4 8.5q0 3 -2 6t-6 4v0h-1q-60 23 -98.5 76t-38.5 121q0 44 16.5 82t45 66.5t66.5 45t82 16.5q43 0 81.5 -16.5t67 -45t45 -66.5t16.5 -82q0 -68 -38.5 -121
t-98.5 -76h-0.5h-0.5q-4 -1 -6 -4t-2 -6q0 -7 4 -8.5l4 -1.5q21 -5 42 -12.5t40 -17.5l1 -0.5t4 -0.5q4 0 7 3t3 7t-1.5 6t-2.5 3q-1 0 -1.5 0.5t-1.5 0.5q-14 7 -28 13t-29 10q56 29 90.5 83.5t34.5 121.5q0 48 -18 90t-49.5 73t-73 49t-89.5 18t-90 -18t-73 -49t-49.5 -73
t-18.5 -90q0 -67 35 -121.5t91 -83.5q-54 -16 -100 -47.5t-80 -75t-54.5 -96t-23.5 -110.5q0 -1 -0.5 -2t-0.5 -2q0 -4 3 -7t8 -3h580l4 2t4 8q0 7 -4 9l-4 2v0zM998 279q0 53 -37.5 90.5t-90.5 37.5q-26 0 -49 -10t-40 -27q-18 17 -41 27t-49 10q-53 0 -90.5 -37.5
t-37.5 -90.5v-0.5v-0.5v-0.5v-1.5q0 -45 34 -93t75 -88v0l10 -10l11 -11v0q35 -32 61.5 -51.5l26.5 -19.5l34 25.5t74.5 66t74.5 88.5t34 93v1.5v0.5v0.5v0.5v0zM978 276q0 -27 -14.5 -55.5t-36.5 -55.5q-36 -47 -80 -84t-60 -48v0v-1q-1 0 -1.5 -0.5l-0.5 -0.5h-0.5h-0.5
q0 -1 -0.5 -1t-1.5 -1v0v0q-1 0 -1 -0.5v-0.5v0v0v0h-1v0.5v0.5v0h-1l-0.5 0.5t-0.5 1.5h-1v0q-1 0 -1.5 0.5l-0.5 0.5v1h-1q-12 9 -43.5 34.5t-64 60t-57.5 73.5t-25 75v1.5v0.5v0.5v0.5v1.5v1.5v3.5v3.5v0.5v1.5q1 8 2.5 15t4.5 12q1 2 1.5 3.5t1.5 3.5v0.5t1 0.5
q3 7 7 13t9 12q1 0 1 0.5t1 0.5q1 2 2 3l2 2q1 0 1.5 0.5t0.5 1.5q2 1 4 3t4 3l1.5 1.5t1.5 0.5q1 1 2 1.5t2 1.5t2 1.5t2 0.5q1 1 2 1.5t2 1.5q1 0 2.5 0.5t2.5 1.5q1 0 1.5 0.5t1.5 0.5q2 1 4.5 2t4.5 2h1h1q2 1 3.5 1.5t3.5 0.5h2t1 1h4t3 1h1.5h1.5q3 0 5.5 0.5t4.5 0.5
q3 0 5.5 -0.5t5.5 -0.5h1.5h0.5q3 -1 5 -1t4 -1h0.5h1.5q2 -1 4 -1.5t4 -0.5q1 0 1 -0.5v-0.5q3 0 5 -1l4 -2v0h1q14 -6 26 -16.5t21 -23.5q14 22 37.5 35.5t51.5 13.5q35 0 62 -19.5t39 -49.5q2 -5 4 -12t2 -15v-1.5v-0.5q1 -2 1 -3.5v-3.5v-1.5v-1.5v-0.5v-0.5v-0.5v-1.5
v0z" />
    <glyph glyph-name="o" unicode="o" 
d="M901 791h-778q-21 0 -36 -15t-15 -36v-605q0 -21 15 -36t36 -15h778q21 0 36 15t15 36v605q0 21 -15 36t-36 15v0zM932 140q0 -15 -10.5 -25.5t-25.5 -10.5h-768q-15 0 -25.5 10.5t-10.5 25.5v595q0 15 10.5 25.5t25.5 10.5h768q15 0 25.5 -10.5t10.5 -25.5v-595v0z
M889 737l-377 -327l-377 327q-3 3 -7.5 3t-7.5 -4q-2 -3 -2 -7t3 -7l384 -333q1 -1 2 -1.5t2 -0.5h1v0h0.5h0.5h0.5h0.5h0.5h0.5h0.5h0.5v0h1t2 0.5t2 1.5l384 333q3 3 3 7t-2 7q-3 4 -7.5 4t-7.5 -3v0z" />
    <glyph glyph-name="p" unicode="p" 
d="M232 115v0v0v0v0h-185q5 53 26 99.5t55 83.5t78.5 61.5t95.5 32.5l5 2t5 9q0 8 -5 9.5l-5 1.5q-58 17 -95.5 65.5t-37.5 111.5q0 77 54 131t130 54q15 0 29.5 -2.5t27.5 -6.5l2 -1t5 -1q4 0 7 3t3 7q0 2 -0.5 4t-2.5 3q-1 2 -3 2.5l-2 0.5q-15 6 -31.5 8.5t-34.5 2.5
q-42 0 -79.5 -16t-65 -44t-44 -65t-16.5 -80q0 -61 33 -111t86 -74q-50 -14 -92.5 -42t-74.5 -66.5t-51 -86.5t-23 -101h1q-1 -1 -1 -2.5v-2.5q0 -4 3 -7t7 -3h196v0v0q4 0 7 3t3 7q0 7 -5 8.5l-5 1.5v0zM730 412q56 29 90.5 83.5t34.5 121.5q0 48 -18 90t-49.5 73t-73.5 49
t-89 18q-48 0 -90 -18t-73.5 -49t-49.5 -73t-18 -90q0 -67 35 -121.5t90 -83.5q-54 -16 -100 -48t-80.5 -75.5t-54.5 -97t-23 -112.5v0q0 -4 3 -7t8 -3h706q4 0 7 3t3 7v0q-3 59 -23 112.5t-54.5 97t-80.5 75.5t-100 48v0zM283 90q4 57 26 108.5t58 92t83.5 69t102.5 39.5
l4 2t4 9q0 3 -2.5 6t-5.5 4h-0.5h-0.5q-60 22 -98.5 75.5t-38.5 121.5q0 43 16.5 81.5t45 67t66.5 45t82 16.5q43 0 81.5 -16.5t67 -45t45 -67t16.5 -81.5q0 -68 -38.5 -121.5t-98.5 -75.5h-1h-1q-3 -1 -5.5 -4t-2.5 -6q0 -7 4 -9l4 -2q55 -11 102.5 -39.5t83.5 -69t58 -92
t27 -108.5h-684v0z" />
    <glyph glyph-name="q" unicode="q" 
d="M829 883h-634q-22 0 -37 -15t-15 -36v-768q0 -21 15 -36t37 -15h634q22 0 37 15t15 36v768q0 21 -15 36t-37 15v0zM860 69q0 -15 -10.5 -25.5t-25.5 -10.5h-624q-15 0 -25.5 10.5t-10.5 25.5v758q0 15 10.5 25.5t25.5 10.5h624q15 0 25.5 -10.5t10.5 -25.5v-758v0z
M722 678h-420q-4 0 -7 -3t-3 -7t3 -7t7 -3h420q4 0 7 3t3 7t-3 7t-7 3v0zM722 494h-420q-4 0 -7 -3t-3 -7t3 -7t7 -3h420q4 0 7 3t3 7t-3 7t-7 3v0z" />
    <glyph glyph-name="r" unicode="r" 
d="M864 520l-12 5t-5 25q22 65 9 108.5t-56 62.5q-56 26 -119 16.5t-79 -12.5q-12 -2 -8 31t-43 78q-67 65 -197 -6t-227.5 -202.5t-116 -287t138.5 -259.5q87 -58 206 -71.5t237 11t220.5 84t158.5 147.5q34 53 40.5 98t-9 80t-51.5 58.5t-87 33.5v0zM940 242
q-26 -34 -62.5 -64.5t-80.5 -56.5t-93 -46t-101 -33q-60 -15 -122.5 -19.5t-121 2.5t-111.5 25.5t-95 47.5q-53 40 -82 83.5t-37.5 92.5t2 104.5t37.5 117.5q32 75 87.5 142t117 115.5t120 73.5t96.5 14q80 -22 74.5 -78t12.5 -61q13 -3 28.5 4.5t75.5 11.5
q87 0 130.5 -36.5t0.5 -142.5q-5 -13 0 -23t14 -13q9 -4 17 -5l8 -1q61 -8 92 -35.5t38.5 -64.5t-5.5 -78.5t-40 -76.5v0z" />
    <glyph glyph-name="s" unicode="s" 
d="M282 545q-22 0 -37 -15t-15 -36t15 -36t37 -15q21 0 36 15t15 36t-15 36t-36 15v0zM282 463q-13 0 -22 9t-9 22t9 22t22 9q12 0 21 -9t9 -22t-9 -22t-21 -9v0zM742 545q-21 0 -36 -15t-15 -36t15 -36t36 -15q22 0 37 15t15 36t-15 36t-37 15v0zM742 463q-12 0 -21 9
t-9 22t9 22t21 9q13 0 22 -9t9 -22t-9 -22t-22 -9v0zM512 545q-21 0 -36 -15t-15 -36t15 -36t36 -15t36 15t15 36t-15 36t-36 15v0zM512 463q-13 0 -22 9t-9 22t9 22t22 9t22 -9t9 -22t-9 -22t-22 -9v0zM901 842h-778q-21 0 -36 -15t-15 -36v-594q0 -21 15 -36t36 -15h252
l137 -138l15 15v0l122 123h252q21 0 36 15t15 36v594q0 21 -15 36t-36 15v0zM932 202q0 -15 -10.5 -25.5t-25.5 -10.5h-255l-21 -20v0l-108 -108l-108 108v0l-21 20h-255q-15 0 -25.5 10.5t-10.5 25.5v584q0 15 10.5 25.5t25.5 10.5h768q15 0 25.5 -10.5t10.5 -25.5v-584v0z
" />
    <glyph glyph-name="t" unicode="t" 
d="M0 888h11v61h61v11h-72v-72v0zM406 -64h73v11h-73v-11v0zM11 147h-11v-72h11v72v0zM134 -64h72v11h-72v-11v0zM267 -64h72v11h-72v-11v0zM11 287h-11v-73h11v73v0zM11 8h-11v-72h72v11h-61v61v0zM479 960h-73v-11h73v11v0zM612 960h-72v-11h72v11v0zM339 960h-72v-11h72
v11v0zM11 554h-11v-73h11v73v0zM11 826h-11v-72h11v72v0zM11 420h-11v-72h11v72v0zM11 693h-11v-72h11v72v0zM134 949h72v11h-72v-11v0zM1013 348h11v72h-11v-72v0zM1013 214h11v73h-11v-73v0zM1013 481h11v73h-11v-73v0zM1013 75h11v72h-11v-72v0zM1013 621h11v72h-11v-72
v0zM952 960v-11h61v-61h11v72h-72v0zM1013 754h11v72h-11v-72v0zM813 -64h72v11h-72v-11v0zM673 949h73v11h-73v-11v0zM673 -64h73v11h-73v-11v0zM540 -64h72v11h-72v-11v0zM813 949h72v11h-72v-11v0zM1013 -53h-61v-11h72v72h-11v-61v0zM712 451q0 3 -2.5 5.5t-5.5 2.5
h-181v181q0 3 -2.5 5.5t-5.5 2.5q-4 0 -6.5 -2.5t-2.5 -5.5v-181h-181q-3 0 -5.5 -2.5t-2.5 -5.5q0 -4 2.5 -6.5t5.5 -2.5h181v-180q0 -4 2.5 -6.5t6.5 -2.5q3 0 5.5 2.5t2.5 6.5v180h181q3 0 5.5 2.5t2.5 6.5v0z" />
    <glyph glyph-name="exclamdown" unicode="&#xa1;" 
d="M512 704q-4 0 -7 -3t-3 -7v-307q0 -5 3 -8t7 -3t7 3t3 8v307q0 4 -3 7t-7 3v0zM512 899q-93 0 -175 -35.5t-143.5 -97t-97 -143.5t-35.5 -175t35.5 -175t97 -143.5t143.5 -97t175 -35.5t175 35.5t143.5 97t97 143.5t35.5 175t-35.5 175t-97 143.5t-143.5 97t-175 35.5v0z
M512 18q-89 0 -167.5 34t-137 92t-92 136.5t-33.5 167.5t33.5 167.5t92 137t137 92t167.5 33.5t167.5 -33.5t136.5 -92t92 -137t34 -167.5t-34 -167.5t-92 -136.5t-136.5 -92t-167.5 -34v0zM512 274q-4 0 -7 -3t-3 -7v-62q0 -4 3 -7t7 -3t7 3t3 7v62q0 4 -3 7t-7 3v0z" />
    <glyph glyph-name="multiply" unicode="&#xd7;" 
d="M829 166l-281 282l281 282q8 7 8 17.5t-8 17.5q-7 8 -17.5 8t-17.5 -8l-282 -281l-282 281q-7 8 -17.5 8t-17.5 -8q-8 -7 -8 -17.5t8 -17.5l281 -282l-281 -280q-8 -8 -8 -18t8 -18q7 -7 17.5 -7t17.5 7l282 280l282 -281q7 -8 17.5 -8t17.5 8q8 7 8 17.5t-8 17.5v0z" />
    <glyph glyph-name="uni03A9" unicode="&#x3a9;" horiz-adv-x="1106" 
d="M616 571q-18 0 -34 -6t-29 -17q-13 11 -29 17t-34 6q-41 0 -69.5 -28t-28.5 -68q0 -10 2 -19.5t6 -18.5q1 -3 3 -7l4 -8q28 -47 77.5 -92.5t68.5 -45.5t68.5 45.5t77.5 92.5l4 8t3 7q4 9 6 18.5t2 19.5q0 40 -28.5 68t-69.5 28v0zM553 776q-68 0 -127.5 -26t-104 -70.5
t-70.5 -104t-26 -127.5t26 -127.5t70.5 -104t104 -70.5t127.5 -26t127.5 26t104 70.5t70.5 104t26 127.5t-26 127.5t-70.5 104t-104 70.5t-127.5 26v0zM553 161q-59 0 -111.5 22.5t-91.5 61.5t-61.5 91.5t-22.5 111.5t22.5 111.5t61.5 91.5t91.5 61.5t111.5 22.5
t111.5 -22.5t91.5 -61.5t61.5 -91.5t22.5 -111.5t-22.5 -111.5t-61.5 -91.5t-91.5 -61.5t-111.5 -22.5v0z" />
    <glyph glyph-name="upsilondieresistonos" unicode="&#x3b0;" 
d="M725 322v0q-1 10 -9.5 14.5t-17.5 2.5q-5 -1 -9.5 -4.5t-5.5 -8.5q-29 -40 -72.5 -64t-94.5 -25q-51 -2 -95.5 20t-74.5 59q-4 8 -11 12t-15 3q-10 -2 -14 -10t-1 -18v0l0.5 -1t1.5 -1v0q0 -2 1 -2.5t1 -1.5l1 -1.5l1 -1.5q26 -33 63.5 -57.5t82.5 -35.5q80 -20 152.5 11
t115.5 93v0q2 3 2 7.5t-2 9.5v0zM512 939q-102 0 -191 -38.5t-156 -105.5t-105.5 -156t-38.5 -191t38.5 -191t105.5 -156t156 -105.5t191 -38.5t191 38.5t156 105.5t105.5 156t38.5 191t-38.5 191t-105.5 156t-156 105.5t-191 38.5v0zM512 21q-88 0 -165.5 34t-135.5 92
t-92 135.5t-34 165.5t34 165.5t92 135.5t135.5 92t165.5 34t165.5 -34t135.5 -92t92 -135.5t34 -165.5t-34 -165.5t-92 -135.5t-135.5 -92t-165.5 -34v0zM403 525q5 1 7 5.5t4 9.5v1.5v2.5v0v0q0 5 -3 9t-8 6l-96 58q-8 4 -15.5 2t-12.5 -9q-4 -6 -2 -14t9 -11l68 -41
l-68 -38q-8 -4 -9.5 -12t2.5 -14q5 -6 12.5 -8.5t15.5 2.5l96 51v0zM672 617q-30 0 -52.5 -23.5t-22.5 -53.5q0 -31 22.5 -52t52.5 -21t52.5 21t22.5 52q0 30 -22.5 53.5t-52.5 23.5v0zM672 512q-13 0 -22.5 9t-9.5 23q0 13 9 22.5t23 9.5t23 -9t9 -23t-9.5 -23t-22.5 -9v0z
" />
    <glyph glyph-name="ellipsis" unicode="&#x2026;" 
d="M213 499q-24 0 -41.5 -17t-17.5 -41v-2q0 -24 17.5 -41t41.5 -17q25 0 42.5 17t17.5 41v2q0 24 -17.5 41t-42.5 17v0zM521 499q-25 0 -42.5 -17t-17.5 -41v-2q0 -24 17.5 -41t42.5 -17q24 0 41.5 17t17.5 41v2q0 24 -17.5 41t-41.5 17v0zM828 499q-25 0 -42.5 -17
t-17.5 -41v-2q0 -24 17.5 -41t42.5 -17q24 0 41.5 17t17.5 41v2q0 24 -17.5 41t-41.5 17v0z" />
    <glyph glyph-name="uni2139" unicode="&#x2139;" 
d="M512 672q-5 0 -9 -3.5t-4 -9.5v-256q0 -5 4 -9t9 -4t9 4t4 9v256q0 6 -4 9.5t-9 3.5v0zM512 832q-78 0 -147 -29.5t-120 -81t-81 -120t-30 -147.5q0 -78 30 -146.5t81 -120t120 -81t147 -29.5t147 29.5t120 81t81 120t30 146.5q0 79 -30 147.5t-81 120t-120 81t-147 29.5
v0zM512 102q-73 0 -137 28t-112 75.5t-75.5 112t-27.5 136.5q0 73 27.5 137.5t75.5 112t112 75t137 27.5t137 -27.5t112 -75t75.5 -112t27.5 -137.5q0 -72 -27.5 -136.5t-75.5 -112t-112 -75.5t-137 -28v0zM512 307q-5 0 -9 -3.5t-4 -9.5v-44q0 -6 4 -9.5t9 -3.5t9 3.5
t4 9.5v44q0 6 -4 9.5t-9 3.5v0z" />
    <glyph glyph-name="arrowdown" unicode="&#x2193;" 
d="M961 396q0 17 -10 28.5t-23 11.5t-22.5 -11.5t-9.5 -28.5v-201q-1 -37 -15 -51.5t-55 -15.5h-619q-46 0 -61.5 14.5t-16.5 54.5v199q0 16 -9 28t-23 12t-23.5 -12t-9.5 -28v-212v0v-40q0 -33 23.5 -56.5t57.5 -23.5h742q31 3 52.5 25t21.5 54v253v0zM896 128h-21h21v0v0z
M484 295q5 -5 12 -8t15 -3q7 0 14 3t13 8l155 153q12 11 12 26.5t-12 26.5q-11 11 -27 11t-27 -11l-95 -93v423q0 17 -9.5 28.5t-22.5 11.5t-22.5 -11.5t-9.5 -28.5v-426l-97 96q-12 11 -27.5 11t-27.5 -11q-11 -11 -11 -26.5t11 -26.5l156 -153v0z" />
    <glyph glyph-name="uni21BB" unicode="&#x21bb;" 
d="M828 322q0 11 -5 16t-14 8q-10 2 -19 -2t-15 -19v0q-27 -56 -75.5 -98t-112.5 -59q-58 -15 -115 -6.5t-105 36t-84 72.5t-51 103t-6.5 115t36 105t72.5 84t103 51q44 12 87.5 10t83.5 -16.5t75 -39.5t61 -60l-60 -26l133 -76l36 150l-61 -26q-30 43 -71.5 75t-89.5 50.5
t-101 21.5t-107 -12q-68 -18 -121 -60t-86 -99t-42.5 -124t9.5 -135q18 -69 60 -122t98.5 -85.5t123.5 -42t136 8.5q80 22 138.5 76t88.5 124v0v2v0z" />
    <glyph glyph-name="uni21CC" unicode="&#x21cc;" 
d="M192 512h640q13 0 22.5 9.5t9.5 22.5t-9.5 22.5t-22.5 9.5h-565l106 105q9 10 9 23t-9 22q-10 10 -23 10t-22 -10l-159 -157q-5 -5 -7 -11.5t-2 -12.5v-1v0q0 -13 9.5 -22.5t22.5 -9.5v0zM832 384h-640q-13 0 -22.5 -9.5t-9.5 -22.5q0 -14 9.5 -23t22.5 -9h563l-104 -105
q-10 -10 -10 -23t10 -22q9 -10 22 -10t23 10l158 158v0.5v0.5q5 4 7.5 10t2.5 13q0 13 -9.5 22.5t-22.5 9.5v0z" />
    <glyph glyph-name="radical" unicode="&#x221a;" 
d="M918 692q-12 12 -24 12t-24 -12l-488 -488l-195 203q-12 13 -24.5 13t-24.5 -13q-12 -12 -12 -27t12 -21l220 -220q6 -6 12 -7t12 -1h8h8l4 1t4 7v0v0l512 512q13 6 13 20.5t-13 20.5v0z" />
    <glyph glyph-name="logicalor" unicode="&#x2228;" horiz-adv-x="724" 
d="M669 610q-8 7 -18 7t-17 -7l-275 -272l-269 267q-7 7 -17.5 7t-17.5 -7t-7 -17t7 -17l286 -283l0.5 -0.5l0.5 -0.5v0v0q8 -8 18 -8t17 8l292 288q7 8 7 18t-7 17v0z" />
    <glyph glyph-name="circleplus" unicode="&#x2295;" 
d="M512 939q-102 0 -191 -38.5t-156 -105.5t-105.5 -156t-38.5 -191t38.5 -191t105.5 -156t156 -105.5t191 -38.5t191 38.5t156 105.5t105.5 156t38.5 191t-38.5 191t-105.5 156t-156 105.5t-191 38.5v0zM512 21q-88 0 -165.5 33.5t-135.5 91.5t-92 135.5t-34 166.5
q0 88 34 165.5t92 135.5t135.5 92t165.5 34q89 0 166.5 -34t135.5 -92t91.5 -135.5t33.5 -165.5q0 -89 -33.5 -166.5t-91.5 -135.5t-135.5 -91.5t-166.5 -33.5v0zM725 469h-192v192q0 10 -5.5 16t-15.5 6t-15.5 -6t-5.5 -16v-192h-192q-10 0 -16 -5.5t-6 -15.5t6 -15.5
t16 -5.5h192v-192q0 -10 5.5 -16t15.5 -6t15.5 6t5.5 16v192h192q10 0 16 5.5t6 15.5t-6 15.5t-16 5.5v0z" />
    <glyph glyph-name="uni229F" unicode="&#x229f;" 
d="M145 542q10 0 18 7.5t8 17.5v0v0v137h136v0v0q10 0 18 7.5t8 18.5q0 10 -8 17.5t-18 7.5v0v0v0h-153q-14 0 -24.5 -10t-10.5 -24v-154q0 -10 8 -17.5t18 -7.5v0zM546 704v0v0v0v0v0v0h137v-137q0 -5 2 -9.5t4 -7.5v0v0q2 -1 2.5 -1.5l1.5 -1.5v0h2q1 0 1.5 -1t1.5 -1h1h1
h0.5h0.5h2h4q10 0 17.5 8t7.5 18v0v0v150q0 14 -10 24t-24 10h-154q-10 0 -17.5 -7.5t-7.5 -17.5q1 -11 9 -18.5t18 -7.5v0zM307 192h-1.5h-1.5h-133v137v0v0q0 10 -8 17.5t-18 7.5t-18 -7t-8 -18v-1v-1v-152q0 -14 10.5 -24t24.5 -10h153v0v0v0v0v0v0q10 0 18 7.5t8 17.5
q0 11 -8 18.5t-18 7.5v0zM785 465h-717q-7 0 -12 -4.5t-5 -12.5t5 -12.5t12 -4.5h717q8 0 12.5 4.5t4.5 12.5t-4.5 12.5t-12.5 4.5v0zM708 354q-10 0 -17.5 -7.5t-7.5 -17.5v0v-137h-137q-10 0 -17.5 -7.5t-7.5 -18.5q0 -10 7.5 -17.5t17.5 -7.5v0v0v0v0v0v0h154q14 0 24 10
t10 24v152v0v0q0 11 -7.5 19t-18.5 8v0zM835 141h138v136l-138 -136v0z" />
    <glyph glyph-name="house" unicode="&#x2302;" 
d="M436 371h-0.5h-0.5h-1.5t-1.5 -1h-0.5h-0.5q-1 0 -1 -0.5t-1 -0.5q-3 -2 -4.5 -4.5t-1.5 -6.5v0v-1v-0.5v-0.5v-149q0 -6 3.5 -10.5t8.5 -4.5q6 0 9.5 4.5t3.5 10.5v139h128v-139q0 -6 3.5 -10.5t9.5 -4.5q5 0 8.5 4.5t3.5 10.5v149v0.5v0.5v1v0q0 4 -1.5 6.5t-4.5 4.5
q-1 0 -1 0.5t-1 0.5h-0.5h-0.5q-1 0 -1.5 0.5t-1.5 0.5h-0.5h-0.5v0v0h-152v0v0v0zM814 499l-292 253q-2 2 -4.5 2.5t-5.5 0.5t-6 -0.5t-5 -2.5l-291 -254q-5 -4 -5.5 -10t3.5 -10t10 -4.5t11 3.5l27 24v-320l3.5 -13.5t25.5 -13.5h78h96.5h82.5h35h23h50h73q24 0 28 13.5
l4 13.5v331l41 -35q4 -4 10 -3.5t10 5.5q3 4 2.5 10t-4.5 10v0zM729 217v-0.5v-11.5t-7 -18.5t-18 -7.5h-12v0h-378v0h-7q-10 0 -18 7.5t-8 18.5v7v0l1 311v0v1l229 200l218 -189v-318v0z" />
    <glyph glyph-name="uni24E5" unicode="&#x24e5;" 
d="M512 899q-93 0 -175 -35.5t-143.5 -97t-97 -143.5t-35.5 -175t35.5 -175t97 -143.5t143.5 -97t175 -35.5t175 35.5t143.5 97t97 143.5t35.5 175t-35.5 175t-97 143.5t-143.5 97t-175 35.5v0zM512 18q-89 0 -167.5 34t-137 92t-92 136.5t-33.5 167.5t33.5 167.5t92 137
t137 92t167.5 33.5t167.5 -33.5t136.5 -92t92 -137t34 -167.5t-34 -167.5t-92 -136.5t-136.5 -92t-167.5 -34v0zM740 609l-276 -275l-135 134q-3 3 -7 3t-7 -3t-3 -7.5t3 -7.5l141 -140v0v0q2 -2 4.5 -3t5.5 0q1 0 2.5 1t2.5 2v0v0l284 282q3 3 3 7t-3 7t-7.5 3t-7.5 -3v0z
" />
    <glyph glyph-name="uni25C8" unicode="&#x25c8;" 
d="M512 632q-42 0 -72 -30t-30 -72q0 -43 30 -73t72 -30t72 30t30 73q0 42 -30 72t-72 30v0zM512 468q-26 0 -44 18t-18 43q0 26 18 44t44 18q25 0 43 -18t18 -44q0 -25 -18 -43t-43 -18v0zM758 530q0 51 -19.5 95.5t-53 78t-78 53t-95.5 19.5t-95.5 -19.5t-78 -53t-53 -78
t-19.5 -95.5q0 -32 8 -62t23 -56h-1l216 -333l216 332l-1 1q15 26 23 56t8 62v0zM678 407l-166 -261l-165 261h1q-19 26 -30 57t-11 66q0 42 16 79.5t44 65.5t65.5 44t79.5 16q43 0 80.5 -16t65 -44t44 -65.5t16.5 -79.5q0 -35 -11 -66t-30 -57h1v0z" />
    <glyph glyph-name="uni8BC4" unicode="&#x8bc4;" horiz-adv-x="724" 
d="M576 267h-127l-74 -74q-3 -3 -6.5 -4.5t-7.5 -1.5t-7.5 1.5t-6.5 4.5l-75 74h-124q-19 0 -32.5 13t-14.5 32v338q3 16 16 27.5t30 11.5h430q18 -1 31.5 -14t14.5 -32v-330q-1 -19 -14.5 -32.5t-32.5 -13.5v0zM584 650h-444v-344h140l3.5 0.5t5.5 -1.5q1 0 1.5 -1t1.5 -1
l69 -69l68 69q-4 -4 -1 -1l3 3q2 1 6 1h4h143v344v0v0zM458 489h49q10 0 17 -6t7 -15q0 -8 -7 -14t-17 -6h-49q-10 0 -17 6t-7 14q0 9 7 15t17 6v0zM387 448h-50q-10 0 -17 6t-7 14q0 9 7 15t17 6h50q10 0 17 -6t7 -15q0 -8 -7 -14t-17 -6v0zM266 448h-49q-10 0 -17 6t-7 14
q0 9 7 15t17 6h49q10 0 17 -6t7 -15q0 -8 -7 -14t-17 -6v0z" />
    <glyph glyph-name="uni8D5E" unicode="&#x8d5e;" 
d="M956 489q0 38 -26.5 64.5t-63.5 27.5v0h-259q4 28 6.5 56t2.5 57q0 36 -3.5 66.5t-2.5 30.5q-3 42 -33 69.5t-70 27.5q-68 0 -80 -46l-12 -46v-6v-7q0 -91 -50 -149t-129 -73h-123q-22 0 -37 -15t-15 -37v-394q0 -21 15 -36t37 -15h660q56 0 73.5 37.5l17.5 37.5l86 322
q1 2 1.5 4t1.5 4l1 5t2 6v1v0v4v4v0zM230 84h-112q-15 0 -25.5 10.5t-10.5 25.5v384q0 15 10.5 25.5t25.5 10.5h112v-456v0zM935 486q0 -1 -1 -5.5l-1 -4.5v-0.5v-0.5l-2 -8q0 -1 -0.5 -1t-0.5 -1l-13 -51v1v0l-42 -158v0l-3 -11l-15 -55v0v0l-13 -47l-14.5 -29t-56.5 -31v0
h-522v456v0v4q78 17 124 66t57 124q2 18 2.5 32.5t0.5 19.5v2.5v2.5q0 32 20 54.5t52 22.5q27 0 48 -15.5t30 -41.5l3.5 -16.5t6.5 -56.5v-5.5t2 -38.5v-5.5v-5.5v-5v-2l-1.5 -27.5t-13.5 -87.5h287q28 -2 47.5 -23t19.5 -49q0 -1 -0.5 -2l-0.5 -1v0z" />
    <glyph glyph-name="uni8F6C" unicode="&#x8f6c;" horiz-adv-x="724" 
d="M603 467h-1q-8 0 -13.5 -6t-5.5 -14v-181h-442v364h241q8 0 14 5.5t6 13.5t-6 14t-14 6h-235q-19 -1 -32.5 -14t-14.5 -32v-350q1 -19 15 -32t33 -13h26v-1h399q21 0 35.5 15t14.5 35v170q0 8 -6 14t-14 6v0zM482 630h75l-281 -280q-7 -7 -8 -15.5t6 -15.5t13.5 -4.5
t13.5 9.5l283 286v-59q0 -8 5.5 -14t13.5 -6t14 6t6 14v98q0 5 -2.5 9t-6.5 7q-3 2 -5.5 3t-5.5 1h-121q-8 0 -14 -6t-6 -14t6 -13.5t14 -5.5v0z" />
    <glyph glyph-name="uniE600" unicode="&#xe600;" 
d="M905 619h-143h-1.5h-1.5q-10 0 -17.5 -7.5t-7.5 -18.5q0 -10 7.5 -18t17.5 -8v0v0v0h128v-341h-159h-1.5h-0.5v0v0h-1v0q-10 0 -17.5 -7.5t-7.5 -17.5v-59l-74 74q-3 5 -8.5 7.5t-11.5 2.5h-1.5h-1.5h-131h-1.5h-1.5q-10 0 -17.5 -7.5t-7.5 -17.5q0 -11 7.5 -18.5
t17.5 -7.5h127l111 -111q3 -4 8 -6t10 -2q11 0 18.5 7.5t7.5 17.5v94h108.5h45.5q14 0 24 10t10 24v376q0 14 -10 24t-24 10v0zM666 329q14 0 24 10t10 24v443q0 15 -10 25t-24 10h-547q-14 0 -24 -10t-10 -25v-443q0 -14 10 -24t24 -10h137v-128q0 -11 7.5 -18.5t17.5 -7.5
q6 0 11 2.5t9 7.5l160 144h205v0zM452 380q-6 0 -11 -2.5t-8 -6.5l-126 -114v98q0 10 -7.5 17.5t-18.5 7.5h-2h-2h-140v409h512v-409h-194h-1.5h-1.5v0z" />
    <glyph glyph-name="uniFF20" unicode="&#xff20;" 
d="M772 327q-2 0 -3 -0.5t-2 -1.5q-65 -60 -104.5 -62t-40.5 -1l-4.5 4.5t-2.5 15.5l31 144l2 8l2 8l44 193q1 4 -1 7.5t-7 4.5q-4 1 -7.5 -1.5t-4.5 -6.5l-22 -97q-8 43 -32 74.5t-61 45.5q-65 24 -131 -20t-100 -136q-33 -91 -11 -167t88 -101q52 -19 105 5.5t92 82.5
l-11 -52v-11t12 -17q2 -1 6.5 -2.5t10.5 -1.5q71 -7 113.5 34l42.5 41q1 0 1 1.5v2.5q0 2 -1.5 4t-3.5 2v0zM412 258q-58 21 -76.5 89.5t11.5 151.5q31 84 89.5 124.5t115.5 18.5q50 -18 71 -71.5t7 -122.5l-4 -18q-2 -7 -4.5 -14.5t-4.5 -14.5q-31 -84 -89.5 -124
t-115.5 -19v0zM512 899q-93 0 -175 -35.5t-143.5 -97t-97 -143.5t-35.5 -175t35.5 -175t97 -143.5t143.5 -97t175 -35.5t175 35.5t143.5 97t97 143.5t35.5 175t-35.5 175t-97 143.5t-143.5 97t-175 35.5v0zM512 18q-89 0 -167.5 34t-137 92t-92 136.5t-33.5 167.5
t33.5 167.5t92 137t137 92t167.5 33.5t167.5 -33.5t136.5 -92t92 -137t34 -167.5t-34 -167.5t-92 -136.5t-136.5 -92t-167.5 -34v0z" />
  </font>
</defs>
</svg>
